<?xml version="1.0" encoding="utf-8"?>
<!-- Generator: Adobe Illustrator 16.0.0, SVG Export Plug-In . SVG Version: 6.00 Build 0)  -->
<!DOCTYPE svg PUBLIC "-//W3C//DTD SVG 1.1//EN" "http://www.w3.org/Graphics/SVG/1.1/DTD/svg11.dtd">
<svg version="1.1" id="Layer_1" xmlns="http://www.w3.org/2000/svg" xmlns:xlink="http://www.w3.org/1999/xlink" x="0px" y="0px"
	 width="136.346px" height="115.987px" viewBox="0 0 136.346 115.987" enable-background="new 0 0 136.346 115.987"
	 xml:space="preserve">
<g>
	<path fill="#45844C" d="M61.898,14.909v98.542c0,1.69-1.251,2.536-3.749,2.536H27.6c-2.502-0.085-3.749-0.634-3.749-1.648V36.85
		c0-1.437-0.759-2.156-2.271-2.156c-4.924-0.083-11.171-0.253-18.74-0.507C0.945,34.103,0,33.384,0,32.03v-6.087
		c0-1.268,0.661-2.112,1.987-2.537c5.865-1.859,15.617-4.775,29.246-8.75c0.187-0.083,1.322-0.507,3.407-1.269
		c1.136-0.422,2.174-0.59,3.124-0.507c1.513,0.085,8.234,0.127,20.16,0.127C60.572,13.007,61.898,13.641,61.898,14.909z"/>
</g>
<g>
	<path fill="#A3A674" d="M37.877,46.22c0-0.499,0.176-0.987,0.53-1.465c0.353-0.478,0.758-0.925,1.216-1.341
		c0.457-0.415,0.904-0.769,1.341-1.06c0.437-0.291,0.737-0.499,0.904-0.624c0.208,1.913,0.935,3.357,2.183,4.334
		c1.247,0.978,2.806,1.601,4.677,1.871c1.871,0.271,3.97,0.24,6.299-0.093c2.328-0.333,4.656-0.852,6.984-1.559
		c2.328-0.707,4.573-1.548,6.735-2.526c2.162-0.976,4.012-1.985,5.55-3.024c1.538-1.039,2.682-2.047,3.43-3.024
		c0.748-0.977,0.873-1.818,0.374-2.526L45.61,22.273c-0.417-0.125-0.926-0.343-1.528-0.655c-0.603-0.312-1.175-0.665-1.715-1.06
		c-0.541-0.395-0.998-0.831-1.372-1.31c-0.374-0.478-0.561-0.967-0.561-1.466c0-1.954,0.717-3.742,2.151-5.363
		c1.435-1.622,3.274-3.065,5.519-4.334c2.245-1.268,4.74-2.379,7.483-3.336c2.744-0.956,5.404-1.756,7.982-2.401
		c2.577-0.644,4.937-1.132,7.078-1.465c2.141-0.332,3.731-0.54,4.771-0.624c0.665-0.208,1.382-0.291,2.151-0.25
		c0.769,0.042,1.455,0.198,2.058,0.468C80.23,0.749,80.688,1.123,81,1.601c0.312,0.479,0.343,1.05,0.093,1.715
		c-0.249,0.624-0.935,1.185-2.058,1.684c-1.123,0.499-2.505,0.957-4.147,1.372c-1.643,0.416-3.472,0.821-5.488,1.216
		c-2.017,0.396-4.054,0.801-6.112,1.216c-2.058,0.416-4.033,0.863-5.924,1.341c-1.892,0.479-3.555,1.029-4.989,1.653
		c-1.435,0.624-2.526,1.34-3.274,2.151c-0.749,0.811-1.02,1.736-0.811,2.775c0.998,0.333,2.515,0.842,4.553,1.528
		c2.036,0.686,4.312,1.487,6.829,2.401c2.515,0.915,5.123,1.893,7.826,2.931c2.702,1.04,5.208,2.08,7.515,3.118
		c2.308,1.04,4.292,2.027,5.956,2.962c1.662,0.936,2.723,1.737,3.181,2.401c0.956,1.497,1.34,2.941,1.153,4.334
		c-0.187,1.394-0.79,2.734-1.808,4.022c-1.02,1.289-2.36,2.505-4.022,3.648c-1.664,1.144-3.492,2.204-5.488,3.181
		c-1.996,0.977-4.075,1.85-6.236,2.619c-2.162,0.77-4.231,1.424-6.205,1.964c-1.975,0.541-3.784,0.946-5.425,1.217
		c-1.643,0.271-2.962,0.384-3.96,0.343c-0.583,0.083-1.341,0.083-2.276,0s-1.933-0.25-2.993-0.499s-2.131-0.582-3.212-0.998
		c-1.082-0.415-2.058-0.904-2.931-1.465c-0.873-0.561-1.581-1.194-2.121-1.902C38.084,47.821,37.835,47.052,37.877,46.22z"/>
	<path fill="#A3A674" d="M104.604,6.745l-16.65-0.998c-0.208,0-0.396-0.094-0.562-0.281C87.226,5.28,87.09,5.041,86.987,4.75
		c-0.104-0.291-0.187-0.582-0.25-0.874c-0.062-0.29-0.093-0.54-0.093-0.748c0-0.707,0.228-1.403,0.686-2.089
		c0.457-0.686,1.018-1.029,1.684-1.029c3.783,0.167,7.587,0.416,11.412,0.749c3.825,0.333,7.66,0.583,11.506,0.748
		c3.846,0.167,7.671,0.187,11.475,0.062c3.805-0.125,7.577-0.54,11.318-1.247c0.291,0.083,0.541,0.333,0.749,0.748
		c0.208,0.416,0.374,0.895,0.499,1.435c0.125,0.541,0.219,1.091,0.281,1.652c0.062,0.562,0.093,0.988,0.093,1.278
		c-2.578,0.749-4.833,1.196-6.767,1.341c-1.933,0.146-3.814,0.198-5.644,0.156c-1.829-0.041-3.71-0.083-5.644-0.125
		c-1.934-0.041-4.168,0.125-6.704,0.499c-0.083,1.331-0.218,3.16-0.405,5.488c-0.188,2.329-0.385,4.906-0.592,7.733
		c-0.209,2.828-0.416,5.79-0.624,8.887c-0.208,3.097-0.374,6.111-0.499,9.042c-0.125,2.931-0.209,5.644-0.25,8.138
		c-0.041,2.494,0.021,4.552,0.188,6.173l-7.296,0.562L104.604,6.745z"/>
</g>
</svg>
