<?xml version="1.0" encoding="utf-8"?>
<!-- Generator: Adobe Illustrator 16.0.0, SVG Export Plug-In . SVG Version: 6.00 Build 0)  -->
<!DOCTYPE svg PUBLIC "-//W3C//DTD SVG 1.1//EN" "http://www.w3.org/Graphics/SVG/1.1/DTD/svg11.dtd">
<svg version="1.1" id="Layer_1" xmlns="http://www.w3.org/2000/svg" xmlns:xlink="http://www.w3.org/1999/xlink" x="0px" y="0px"
	 width="173.127px" height="116.416px" viewBox="0 0 173.127 116.416" enable-background="new 0 0 173.127 116.416"
	 xml:space="preserve">
<g>
	<path fill="#45844C" d="M92.423,54.399c0,7.441-4.166,14.204-12.493,20.292c-1.704,1.186-9.561,5.539-23.567,13.062
		c-8.519,4.566-12.777,8.751-12.777,12.556c0.186,0.339,1.322,0.72,3.407,1.142c4.729,0.17,11.26,0.17,19.592,0
		c10.976-0.254,17.697-0.381,20.16-0.381c2.271,0,3.407,0.339,3.407,1.015v12.683c0,1.098-1.233,1.648-3.691,1.648l-82.626-0.127
		c-2.271,0-3.505-0.424-3.691-1.268c-0.191-0.93-0.191-2.578,0-4.946c0-8.37,5.013-16.36,15.049-23.97
		c0.568-0.422,9.938-6.171,28.11-17.248C53.333,62.77,58.351,57.36,58.351,52.624V39.941c0-4.058-0.284-6.678-0.852-7.863
		c-1.518-2.959-5.018-4.439-10.506-4.439c-3.975,0-6.531,2.156-7.667,6.468c-0.381,1.607-0.568,5.073-0.568,10.4v3.424
		c0,1.269-0.994,1.946-2.981,2.029c-1.987,0.085-11.029,0.127-27.116,0.127c-2.839,0-4.259-0.781-4.259-2.346
		c0-1.563-0.098-4.459-0.284-8.688c-0.381-9.722,3.514-16.655,11.677-20.799c7.409-3.805,19.086-5.707,35.04-5.707
		c12.724,0,22.977,1.692,30.763,5.073c7.214,3.214,10.825,7.272,10.825,12.175V54.399z"/>
</g>
<g>
	<path fill="#A3A674" d="M114.57,53.382c-1.954-3.409-4.22-6.808-6.797-10.197c-2.578-3.388-5.229-6.776-7.951-10.165
		c-2.723-3.388-5.425-6.776-8.107-10.165c-2.682-3.388-5.104-6.807-7.265-10.259c-0.25,3.077-0.396,6.434-0.437,10.072
		c-0.042,3.638-0.073,7.286-0.093,10.944c-0.021,3.659-0.073,7.162-0.156,10.508c-0.083,3.347-0.291,6.247-0.624,8.7
		c-0.708,0.623-1.341,1.019-1.902,1.185c-0.562,0.166-1.238,0.25-2.027,0.25c-0.749,0-1.372-0.136-1.871-0.405
		c-0.499-0.271-0.707-1.029-0.624-2.277c0.25-2.12,0.446-4.521,0.593-7.203c0.145-2.682,0.249-5.498,0.312-8.45
		c0.062-2.951,0.083-5.986,0.062-9.104c-0.021-3.118-0.053-6.152-0.094-9.105c-0.042-2.952-0.093-5.769-0.156-8.45
		c-0.062-2.681-0.135-5.083-0.218-7.203c0.707-0.956,1.393-1.59,2.058-1.902C79.938-0.156,80.78,0,81.799,0.624
		c1.019,0.624,2.308,1.788,3.867,3.492c1.559,1.705,3.575,4.095,6.049,7.171c2.473,3.077,5.508,6.922,9.105,11.537
		c3.595,4.615,7.929,10.124,13.002,16.526l-0.125-36.107c0.54-1.039,1.101-1.756,1.685-2.152c0.581-0.395,1.35-0.592,2.307-0.592
		c0.873,0,1.496,0.323,1.871,0.967c0.374,0.645,0.623,1.403,0.748,2.276s0.156,1.747,0.094,2.62s-0.094,1.539-0.094,1.996
		c0,1.663,0.062,3.794,0.188,6.392c0.125,2.599,0.259,5.416,0.405,8.45c0.146,3.035,0.27,6.153,0.374,9.354
		c0.104,3.202,0.156,6.215,0.156,9.042c0,2.828-0.084,5.332-0.25,7.515c-0.166,2.183-0.479,3.773-0.936,4.77L114.57,53.382z"/>
	<path fill="#A3A674" d="M125.67,0.125c0.166,0,0.52,0,1.061,0c0.539,0,1.091,0.053,1.652,0.156c0.561,0.104,1.08,0.281,1.559,0.53
		c0.478,0.25,0.779,0.624,0.904,1.123c1.496-0.499,3.586-0.852,6.268-1.061c2.682-0.208,5.591-0.176,8.73,0.094
		c3.139,0.271,6.319,0.821,9.541,1.653c3.222,0.832,6.152,2.017,8.793,3.554c2.64,1.539,4.791,3.493,6.455,5.862
		c1.662,2.37,2.494,5.238,2.494,8.606c0,2.454-0.53,4.833-1.59,7.14c-1.061,2.308-2.475,4.512-4.241,6.61
		c-1.768,2.1-3.835,4.075-6.205,5.924c-2.369,1.851-4.844,3.534-7.421,5.052c-2.578,1.518-5.207,2.837-7.889,3.96
		c-2.682,1.122-5.249,2.006-7.701,2.65c-2.454,0.646-4.699,1.028-6.735,1.153c-2.038,0.125-3.7-0.062-4.989-0.561L125.67,0.125z
		 M167.889,21.266c-0.291-2.536-1.153-4.74-2.588-6.61c-1.435-1.871-3.223-3.43-5.363-4.677c-2.142-1.247-4.501-2.214-7.078-2.9
		c-2.578-0.686-5.135-1.132-7.671-1.341c-2.536-0.208-4.948-0.187-7.233,0.062c-2.287,0.25-4.199,0.686-5.737,1.31l0.687,40.972
		c1.703,0,3.751-0.353,6.143-1.06c2.39-0.707,4.884-1.684,7.482-2.931c2.599-1.247,5.177-2.733,7.733-4.458
		c2.557-1.725,4.843-3.575,6.859-5.55c2.017-1.974,3.648-4.054,4.896-6.236S167.889,23.47,167.889,21.266z"/>
</g>
</svg>
