<?xml version="1.0" encoding="utf-8"?>
<!-- Generator: Adobe Illustrator 16.0.0, SVG Export Plug-In . SVG Version: 6.00 Build 0)  -->
<!DOCTYPE svg PUBLIC "-//W3C//DTD SVG 1.1//EN" "http://www.w3.org/Graphics/SVG/1.1/DTD/svg11.dtd">
<svg version="1.1" id="Layer_1" xmlns="http://www.w3.org/2000/svg" xmlns:xlink="http://www.w3.org/1999/xlink" x="0px" y="0px"
	 width="177.265px" height="116.417px" viewBox="0 0 177.265 116.417" enable-background="new 0 0 177.265 116.417"
	 xml:space="preserve">
<g>
	<path fill="#45844C" d="M94.842,81.921l-0.852,20.8c-0.191,4.229-4.592,7.567-13.204,10.019
		c-8.616,2.451-18.598,3.678-29.956,3.678c-17.227,0-29.911-1.48-38.048-4.438c-8.709-3.212-12.968-8.454-12.777-15.727
		c0.377-5.241,0.47-8.961,0.284-11.16c0.377-0.422,1.136-0.803,2.271-1.142c9.84,0.171,20.16,0.171,30.949,0
		c2.458,0,3.691,0.678,3.691,2.029c0,0.761,0.093,2.41,0.284,4.946c0.377,6.426,3.975,9.724,10.79,9.893
		c5.111,0.085,8.327-1.299,9.654-4.15c0.568-1.425,0.945-5.112,1.136-11.064c0.377-9.473-4.827-14.209-15.617-14.209
		c-1.136,0-2.462,0-3.975,0c-1.517,0-2.462,0-2.839,0c-2.085,0-3.124-0.676-3.124-2.028c0-5.327,0.093-9.174,0.284-11.541
		c0.187-1.605,0.945-2.41,2.271-2.41c6.247,0,10.692-0.337,13.345-1.015c7.191-1.944,10.79-6.087,10.79-12.428
		c0-4.48-0.666-7.651-1.987-9.512c-1.704-2.537-4.925-3.888-9.654-4.059c-2.462-0.083-4.875,0.571-7.24,1.966
		c-2.369,1.395-3.549,2.938-3.549,4.629c0.187,2.368,0.284,4.102,0.284,5.2c0,1.354-0.95,2.029-2.84,2.029
		c-0.758,0-5.395,0-13.913,0c-7.005,0-11.642,0-13.913,0c-1.895,0-2.839-0.551-2.839-1.657c-0.191-2.376-0.191-6.706,0-12.991
		c0-5.688,4.827-9.722,14.481-12.1c7.382-1.696,18.456-2.632,33.221-2.802c9.463-0.083,17.981,0.888,25.555,2.917
		c9.086,2.453,13.722,5.792,13.913,10.019l0.568,18.516c0.187,3.722-1.326,7.356-4.543,10.907c-2.462,2.706-5.208,4.692-8.234,5.96
		c-1.895,0.847-1.988,1.607-0.284,2.283c3.026,1.185,6.247,3.51,9.654,6.976C93.041,74.483,95.028,78.371,94.842,81.921z"/>
</g>
<g>
	<path fill="#A3A674" d="M83.412,52.009c0,0.416-0.156,0.729-0.468,0.936c-0.312,0.209-0.666,0.354-1.061,0.437
		c-0.396,0.084-0.779,0.125-1.153,0.125c-0.375,0-0.645,0-0.811,0c-1.082,0-1.85-0.645-2.307-1.933
		c-0.458-1.288-0.739-3.076-0.842-5.363c-0.104-2.286-0.094-5.009,0.031-8.169c0.125-3.159,0.238-6.61,0.343-10.352
		c0.103-3.742,0.125-7.711,0.062-11.911c-0.062-4.199-0.343-8.501-0.842-12.909c0.499-0.873,1.029-1.351,1.59-1.435
		c0.562-0.083,1.091,0.042,1.59,0.375c0.499,0.333,0.956,0.77,1.372,1.31c0.415,0.541,0.748,0.998,0.998,1.372
		c1.288-1.247,3.076-2.192,5.363-2.837c2.286-0.644,4.771-1.049,7.452-1.216c2.682-0.166,5.415-0.094,8.201,0.218
		c2.785,0.312,5.321,0.801,7.608,1.465c2.286,0.666,4.188,1.497,5.706,2.495c1.518,0.998,2.349,2.12,2.495,3.368
		c0.145,1.247-0.53,2.599-2.027,4.053c-1.496,1.456-4.137,2.973-7.92,4.553c-0.583,0.249-1.476,0.592-2.682,1.029
		c-1.206,0.437-2.578,0.915-4.116,1.434c-1.539,0.521-3.129,1.071-4.771,1.653c-1.643,0.583-3.212,1.154-4.708,1.715
		c-1.497,0.562-2.806,1.082-3.929,1.559c-1.123,0.479-1.913,0.884-2.37,1.216c0,0.208,0.103,0.447,0.312,0.717
		c0.208,0.271,0.707,0.686,1.497,1.248c0.789,0.561,1.974,1.32,3.554,2.276c1.58,0.957,3.742,2.245,6.486,3.867
		c2.744,1.621,6.174,3.627,10.29,6.018c4.116,2.392,9.126,5.291,15.029,8.7c0.208,0.167,0.468,0.354,0.78,0.561
		c0.311,0.208,0.602,0.458,0.873,0.749c0.27,0.292,0.508,0.592,0.717,0.904c0.207,0.312,0.312,0.655,0.312,1.029
		c0,0.541-0.208,0.946-0.624,1.217s-0.914,0.467-1.496,0.592c-0.583,0.125-1.186,0.188-1.809,0.188s-1.145,0-1.559,0
		c-0.749,0.083-1.944-0.312-3.586-1.186c-1.643-0.873-3.535-2.016-5.675-3.43c-2.142-1.413-4.459-3.003-6.954-4.771
		c-2.494-1.767-4.968-3.513-7.421-5.238c-2.454-1.725-4.802-3.336-7.047-4.833c-2.245-1.497-4.178-2.681-5.8-3.554L83.412,52.009z
		 M82.975,9.354c-0.374,0.583-0.614,1.362-0.717,2.339c-0.104,0.977-0.084,1.986,0.062,3.024c0.146,1.04,0.375,2.017,0.686,2.931
		c0.312,0.915,0.675,1.581,1.091,1.996c0.457,0.167,1.341,0.125,2.65-0.125s2.858-0.633,4.646-1.153
		c1.787-0.52,3.689-1.154,5.706-1.902c2.016-0.748,3.949-1.528,5.8-2.338c1.85-0.811,3.502-1.642,4.958-2.495
		c1.455-0.852,2.515-1.652,3.18-2.401c0.665-0.749,0.811-1.413,0.437-1.996c-0.374-0.582-1.476-1.039-3.305-1.372
		c-0.748-0.208-1.809-0.363-3.18-0.468c-1.372-0.103-2.9-0.156-4.584-0.156c-1.684,0-3.44,0.073-5.27,0.218
		c-1.83,0.146-3.555,0.374-5.176,0.686c-1.622,0.312-3.056,0.739-4.303,1.278C84.409,7.962,83.515,8.606,82.975,9.354z"/>
	<path fill="#A3A674" d="M129.808,0c0.166,0,0.52,0,1.061,0c0.539,0,1.092,0.053,1.652,0.156c0.562,0.104,1.08,0.281,1.559,0.53
		s0.78,0.624,0.904,1.123c1.497-0.499,3.586-0.852,6.268-1.061c2.682-0.208,5.592-0.176,8.73,0.094
		c3.139,0.271,6.32,0.821,9.541,1.653c3.223,0.832,6.152,2.017,8.793,3.554c2.641,1.539,4.791,3.493,6.455,5.862
		c1.662,2.37,2.494,5.238,2.494,8.606c0,2.454-0.529,4.833-1.59,7.14c-1.061,2.308-2.475,4.512-4.24,6.61
		c-1.768,2.1-3.836,4.075-6.205,5.924c-2.369,1.851-4.844,3.534-7.422,5.052c-2.578,1.518-5.207,2.837-7.889,3.96
		c-2.682,1.122-5.248,2.006-7.701,2.65c-2.453,0.646-4.698,1.028-6.734,1.153c-2.038,0.125-3.701-0.062-4.99-0.561L129.808,0z
		 M172.027,21.141c-0.291-2.536-1.152-4.74-2.588-6.61c-1.434-1.871-3.223-3.43-5.363-4.677s-4.5-2.214-7.078-2.9
		s-5.135-1.132-7.67-1.341c-2.537-0.208-4.947-0.187-7.234,0.062s-4.199,0.686-5.736,1.31l0.686,40.972
		c1.704,0,3.752-0.353,6.143-1.06c2.391-0.707,4.885-1.684,7.482-2.931c2.6-1.247,5.178-2.733,7.734-4.458
		c2.557-1.725,4.842-3.575,6.859-5.55c2.016-1.974,3.648-4.054,4.895-6.236C171.404,25.537,172.027,23.345,172.027,21.141z"/>
</g>
</svg>
