<?xml version="1.0" encoding="utf-8"?>
<!-- Generator: Adobe Illustrator 16.0.0, SVG Export Plug-In . SVG Version: 6.00 Build 0)  -->
<!DOCTYPE svg PUBLIC "-//W3C//DTD SVG 1.1//EN" "http://www.w3.org/Graphics/SVG/1.1/DTD/svg11.dtd">
<svg version="1.1" xmlns="http://www.w3.org/2000/svg" xmlns:xlink="http://www.w3.org/1999/xlink" x="0px" y="0px"
	 width="149.384px" height="39.104px" viewBox="0 0 149.384 39.104" enable-background="new 0 0 149.384 39.104"
	 xml:space="preserve">
<g id="Layer_1">
	<g>
		<path fill="#0F223E" d="M4.557,20.315v0.002C4.566,20.312,4.562,20.315,4.557,20.315"/>
		<path fill="#0F223E" d="M34.258,15.824c0,0.409,0,2.085,0.039,2.397c-0.106,0.154-0.298,0.205-0.461,0.192
			c-0.217-0.288-0.614-0.749-1.594-1.865l-3.19-3.643c-0.887-0.993-1.323-1.511-1.554-1.714c-0.041,0-0.041,0.149-0.041,0.874v2.652
			c0,1.024,0.015,2.279,0.245,2.689c0.123,0.202,0.354,0.284,0.696,0.338l0.299,0.039c0.121,0.098,0.108,0.358-0.027,0.398
			c-0.505-0.025-1.035-0.04-1.557-0.04c-0.568,0-0.936,0.015-1.414,0.04c-0.11-0.069-0.136-0.301-0.027-0.398l0.299-0.063
			c0.259-0.045,0.503-0.097,0.602-0.313c0.174-0.424,0.174-1.612,0.174-2.689V11.49c0-1.062,0.015-1.281-0.449-1.674
			c-0.15-0.121-0.53-0.232-0.721-0.276L25.371,9.5c-0.095-0.079-0.082-0.352,0.057-0.394c0.515,0.056,1.264,0.042,1.608,0.042
			c0.284,0,0.61-0.017,0.937-0.042c0.235,0.589,1.721,2.303,2.195,2.818l1.365,1.475c0.573,0.629,1.837,2.07,1.977,2.155
			c0.04-0.042,0.04-0.108,0.04-0.33v-2.657c0-1.019-0.014-2.275-0.262-2.685c-0.122-0.203-0.34-0.285-0.68-0.343L32.295,9.5
			c-0.121-0.092-0.109-0.352,0.028-0.394c0.529,0.025,1.034,0.042,1.567,0.042c0.585,0,0.94-0.017,1.431-0.042
			c0.111,0.068,0.137,0.302,0.027,0.394l-0.314,0.071c-0.26,0.038-0.489,0.098-0.587,0.312c-0.189,0.423-0.189,1.607-0.189,2.685
			V15.824z"/>
		<path fill="#0F223E" d="M41.177,8.93c-2.862,0-4.879,2.058-4.879,4.836c0,2.429,1.77,4.592,4.852,4.592
			c2.749,0,4.795-1.999,4.795-4.686C45.945,11.192,44.324,8.93,41.177,8.93 M40.997,9.474c2.171,0,3.098,2.388,3.098,4.444
			c0,2.739-1.256,3.898-2.81,3.898c-2.331,0-3.137-2.563-3.137-4.442C38.148,10.47,39.637,9.474,40.997,9.474"/>
		<path fill="#0F223E" d="M50.162,10.292c0-0.573-0.01-0.597-0.366-0.597h-0.404c-1.251,0-1.618,0.149-2.122,1.251
			c-0.099,0.082-0.382,0.041-0.438-0.095c0.23-0.737,0.438-1.58,0.531-2.062c0.026-0.039,0.084-0.052,0.152-0.052
			c0.053,0,0.108,0.013,0.135,0.052c0.07,0.342,0.261,0.358,1.186,0.358h4.834c0.666,0,0.872-0.042,1.036-0.358
			c0.054-0.025,0.108-0.052,0.163-0.052c0.081,0,0.151,0.026,0.178,0.066c-0.138,0.559-0.247,1.732-0.206,2.168
			c-0.069,0.114-0.299,0.141-0.421,0.043c-0.177-1.064-0.435-1.32-1.893-1.32h-0.414c-0.357,0-0.371,0.023-0.371,0.597v5.89
			c0,1.443,0.126,1.483,0.767,1.553l0.488,0.051c0.096,0.098,0.084,0.341-0.026,0.399c-0.792-0.026-1.403-0.04-2.004-0.04
			c-0.597,0-1.24,0.014-2.112,0.04c-0.109-0.059-0.124-0.328-0.027-0.399l0.572-0.063c0.638-0.057,0.762-0.097,0.762-1.54V10.292z"
			/>
		<path fill="#0F223E" d="M57.499,16.182c0,1.444-0.122,1.483-0.763,1.564l-0.301,0.039c-0.12,0.098-0.081,0.341,0.027,0.398
			c0.628-0.025,1.242-0.04,1.842-0.04c0.598,0,1.211,0.015,1.808,0.04c0.114-0.058,0.129-0.301,0.029-0.398l-0.298-0.039
			c-0.64-0.081-0.765-0.12-0.765-1.564v-1.745c0-0.286,0.016-0.302,0.424-0.302c0.447,0,0.6,0.055,0.845,0.464
			c0.327,0.532,0.711,1.284,1.077,1.856c0.833,1.267,1.541,1.798,2.849,1.798c0.474,0,0.736-0.045,0.898-0.083
			c0.038-0.069,0.038-0.218-0.028-0.272c-0.162-0.015-0.555-0.097-0.94-0.425c-0.64-0.531-1.324-1.688-2.41-3.528
			c-0.055-0.082-0.082-0.19,0-0.232c0.668-0.273,1.635-0.9,1.635-2.152c0-0.979-0.505-1.623-1.198-1.988
			c-0.601-0.328-1.526-0.465-2.592-0.465c-1.117,0-2.275,0.042-3.134,0.125c-0.107,0.067-0.107,0.282-0.013,0.379l0.354,0.039
			c0.641,0.069,0.654,0.233,0.654,1.543V16.182z M59.078,10.32c0-0.625,0.016-0.671,0.724-0.671c1.186,0,1.882,0.941,1.882,2.02
			c0,1.296-0.614,1.949-1.95,1.949c-0.656,0-0.656-0.027-0.656-0.462V10.32z"/>
		<path fill="#0F223E" d="M67.483,11.113c0-1.445-0.121-1.49-0.762-1.583L66.502,9.5c-0.091-0.092-0.081-0.338,0.029-0.394
			c0.258,0.011,0.545,0.025,0.844,0.025c0.3,0.017,0.614,0.017,0.912,0.017h2.605c0.873,0,1.665-0.017,1.839-0.042
			c0.053,0.232,0.136,1.309,0.217,1.894c-0.054,0.113-0.326,0.137-0.434,0.056c-0.218-0.792-0.423-1.131-0.859-1.239
			c-0.313-0.098-0.724-0.121-1.089-0.121h-0.914c-0.588,0-0.588,0.023-0.588,0.799v2.307c0,0.355,0.014,0.369,0.33,0.369h0.65
			c1.191,0,1.421-0.014,1.516-0.603l0.095-0.461c0.11-0.099,0.368-0.099,0.436,0.013c-0.014,0.366-0.039,0.858-0.039,1.363
			c0,0.514,0.025,0.996,0.039,1.431c-0.068,0.097-0.326,0.097-0.436,0.012l-0.095-0.546c-0.095-0.568-0.325-0.597-1.516-0.597h-0.65
			c-0.316,0-0.33,0.028-0.33,0.368v1.732c0,0.692,0.026,1.182,0.233,1.415c0.163,0.19,0.395,0.3,1.539,0.3
			c1.731,0.027,2.031-0.369,2.508-1.474c0.123-0.094,0.357-0.053,0.436,0.081c-0.079,0.572-0.382,1.611-0.573,1.979
			c-0.3-0.015-0.736-0.026-1.307-0.026c-0.571-0.014-1.254-0.014-2.058-0.014h-1.555c-0.597,0-1.429,0.014-2.043,0.04
			c-0.109-0.059-0.122-0.302-0.025-0.399l0.502-0.051c0.641-0.069,0.762-0.109,0.762-1.553V11.113z"/>
		<path fill="#0F223E" d="M79.682,16.182c0,1.444-0.121,1.483-0.763,1.564l-0.301,0.039c-0.092,0.098-0.08,0.341,0.028,0.398
			c0.599-0.025,1.213-0.04,1.731-0.04c0.257,0,0.545,0.015,0.871,0.04c0.328,0.013,0.696,0.038,1.105,0.038
			c1.239,0,2.41-0.161,3.379-0.651c1.689-0.859,2.441-2.409,2.441-3.926c0-2.033-1.162-3.473-2.797-4.073
			c-0.991-0.357-1.922-0.466-3.213-0.466c-1.336,0-2.429,0.042-3.408,0.125c-0.11,0.068-0.11,0.31-0.014,0.38l0.284,0.027
			c0.642,0.081,0.654,0.245,0.654,1.554V16.182z M81.264,10.851c0-0.642,0.013-0.926,0.108-1.006
			c0.097-0.085,0.535-0.196,1.102-0.196c2.279,0,3.846,1.312,3.846,4.009c0,2.306-1.089,4.021-3.515,4.021
			c-1.447,0-1.541-0.707-1.541-2.03V10.851z"/>
		<path fill="#0F223E" d="M93.347,14.803c0.383,0,0.424,0,0.56,0.369l0.638,1.854c0.18,0.584,0.139,0.666-0.349,0.72l-0.304,0.039
			c-0.078,0.086-0.067,0.329,0.043,0.398c0.475-0.014,1.074-0.039,1.66-0.039c0.709,0,1.215,0.014,1.774,0.039
			c0.093-0.069,0.093-0.3-0.015-0.398l-0.205-0.039c-0.694-0.121-0.764-0.217-1.077-1.13l-1.964-5.711
			c-0.217-0.613-0.391-1.256-0.609-1.867c-0.057-0.067-0.126-0.107-0.234-0.107c-0.028,0-0.475,0.556-0.953,0.652
			c0.041,0.232-0.082,0.561-0.262,0.997l-1.867,4.851c-0.283,0.734-0.502,1.307-0.666,1.662c-0.205,0.45-0.354,0.571-0.748,0.63
			l-0.41,0.062c-0.092,0.123-0.08,0.329,0.015,0.398c0.476-0.025,0.899-0.039,1.347-0.039c0.56,0.014,1.012,0.014,1.444,0.039
			c0.112-0.058,0.124-0.3,0.026-0.398l-0.393-0.062c-0.506-0.071-0.559-0.112-0.285-0.917l0.558-1.634
			c0.12-0.369,0.11-0.369,0.463-0.369H93.347z M91.752,14.189c-0.323,0-0.366,0-0.219-0.392l0.571-1.597
			c0.248-0.642,0.355-0.979,0.41-1.077h0.025c0.068,0.098,0.153,0.354,0.385,1.077l0.574,1.635c0.107,0.326,0.053,0.354-0.328,0.354
			H91.752z"/>
		<path fill="#0F223E" d="M109.866,17.785c0.136,0.058,0.12,0.341-0.026,0.398c-0.59-0.025-1.119-0.039-1.666-0.039
			c-0.639,0-1.226,0.014-1.824,0.039c-0.108-0.058-0.163-0.312-0.028-0.398l0.368-0.062c0.546-0.084,0.585-0.193,0.585-1.121v-4.307
			v-1.267h-0.026c-0.371,0.75-0.559,1.158-0.818,1.703l-1.17,2.398c-0.463,0.953-1.148,2.469-1.394,3.106
			c-0.052,0.055-0.256,0.055-0.353,0c-0.23-0.735-0.818-2.071-1.129-2.751l-1.213-2.617c-0.26-0.573-0.629-1.433-0.789-1.84h-0.03
			c-0.028,0.668-0.054,1.731-0.08,2.302c-0.029,0.832-0.06,2.047-0.06,3.162c0,0.904,0.017,1.118,0.604,1.215l0.447,0.078
			c0.099,0.086,0.099,0.341-0.01,0.398c-0.508-0.025-0.93-0.039-1.433-0.039c-0.437,0-0.925,0.014-1.457,0.039
			c-0.126-0.069-0.126-0.328-0.044-0.398l0.232-0.023c0.653-0.084,0.762-0.288,0.848-1.121c0.109-0.856,0.137-1.738,0.203-3.158
			c0.055-0.926,0.133-2.06,0.133-2.892c0-0.641-0.199-0.923-0.732-1.008L98.539,9.5c-0.078-0.092-0.068-0.352,0.055-0.395
			c0.41,0.026,0.776,0.043,1.281,0.043c0.478,0,0.954,0,1.459-0.043c0.055,0.819,0.408,1.525,0.747,2.264l1.503,3.148
			c0.108,0.228,0.463,0.914,0.639,1.226c0.217-0.396,0.41-0.779,0.711-1.417l1.279-2.618c0.435-0.896,0.873-1.7,1.1-2.603
			c0.371,0.026,0.824,0.043,1.121,0.043c0.574,0,1.051-0.017,1.433-0.043c0.147,0.056,0.175,0.315,0.04,0.395l-0.45,0.071
			c-0.597,0.078-0.735,0.311-0.735,1.036c0,2.017,0.025,4.034,0.121,6.05c0.045,0.912,0.191,1.007,0.627,1.065L109.866,17.785z"/>
		<path fill="#0F223E" d="M112.781,11.113c0-1.445-0.122-1.49-0.762-1.583l-0.221-0.03c-0.094-0.092-0.082-0.338,0.028-0.394
			c0.257,0.011,0.545,0.025,0.845,0.025c0.299,0.017,0.613,0.017,0.914,0.017h2.602c0.873,0,1.667-0.017,1.842-0.042
			c0.053,0.232,0.137,1.309,0.217,1.894c-0.055,0.113-0.326,0.137-0.439,0.056c-0.213-0.792-0.422-1.131-0.855-1.239
			c-0.314-0.098-0.72-0.121-1.09-0.121h-0.913c-0.585,0-0.585,0.023-0.585,0.799v2.307c0,0.355,0.014,0.369,0.326,0.369h0.654
			c1.188,0,1.416-0.014,1.515-0.603l0.093-0.461c0.109-0.099,0.367-0.099,0.434,0.013c-0.014,0.366-0.039,0.858-0.039,1.363
			c0,0.514,0.025,0.996,0.039,1.431c-0.066,0.097-0.324,0.097-0.434,0.012l-0.093-0.546c-0.099-0.568-0.326-0.597-1.515-0.597
			h-0.654c-0.312,0-0.326,0.028-0.326,0.368v1.732c0,0.692,0.029,1.182,0.23,1.415c0.164,0.19,0.395,0.3,1.541,0.3
			c1.73,0.027,2.031-0.369,2.508-1.474c0.123-0.094,0.354-0.053,0.437,0.081c-0.082,0.572-0.385,1.611-0.573,1.979
			c-0.301-0.015-0.738-0.026-1.309-0.026c-0.572-0.014-1.253-0.014-2.059-0.014h-1.553c-0.6,0-1.433,0.014-2.047,0.04
			c-0.105-0.059-0.121-0.302-0.025-0.399l0.506-0.051c0.64-0.069,0.762-0.109,0.762-1.553V11.113z"/>
		<path fill="#0F223E" d="M26.268,1.569c0-0.85-0.062-0.874-0.579-0.988l-0.176-0.035c-0.085-0.063-0.072-0.272,0.027-0.308
			c0.419,0.021,0.804,0.035,1.2,0.035c0.391,0,0.775-0.015,1.256-0.035c0.099,0.035,0.111,0.244,0.022,0.308l-0.232,0.035
			c-0.531,0.088-0.582,0.139-0.582,0.988v1.74c0,1.23,0.409,2.069,1.605,2.069c1.11,0,1.592-0.839,1.592-2.058V2.174
			c0-1.235-0.072-1.519-0.605-1.593l-0.261-0.035c-0.084-0.075-0.072-0.248,0.028-0.308c0.393,0.021,0.677,0.035,1.035,0.035
			s0.631-0.015,1.024-0.035c0.1,0.06,0.1,0.244,0.011,0.308l-0.37,0.035c-0.32,0.038-0.416,0.37-0.416,1.593v1.221
			c0,1.579-0.73,2.404-2.298,2.404c-0.789,0-1.38-0.158-1.751-0.516c-0.37-0.369-0.53-0.936-0.53-1.742V1.569z"/>
		<path fill="#0F223E" d="M39.814,2.174c0-1.235-0.073-1.542-0.529-1.592l-0.394-0.036c-0.086-0.074-0.077-0.248,0.023-0.308
			c0.457,0.021,0.739,0.035,1.101,0.035c0.356,0,0.629-0.015,1.021-0.035c0.097,0.06,0.097,0.244,0.011,0.308l-0.366,0.036
			c-0.323,0.037-0.421,0.369-0.421,1.592v2.07c0,0.249,0,1.247,0.037,1.434c-0.037,0.074-0.151,0.138-0.259,0.109
			c-0.137-0.172-0.385-0.429-1.147-1.257l-1.877-1.999c-0.468-0.492-0.789-0.814-0.949-0.951c-0.049,0-0.049,0.137-0.049,0.519v1.63
			c0,1.236,0.074,1.555,0.53,1.591l0.392,0.039c0.1,0.073,0.076,0.245-0.021,0.309c-0.46-0.026-0.744-0.04-1.097-0.04
			c-0.362,0-0.594,0.014-1.027,0.04c-0.1-0.052-0.1-0.247-0.013-0.309l0.371-0.039c0.319-0.036,0.42-0.37,0.42-1.591V1.521
			c0-0.408-0.013-0.582-0.261-0.766c-0.096-0.076-0.332-0.15-0.456-0.173L34.67,0.546c-0.085-0.074-0.085-0.26,0.023-0.308
			c0.47,0.035,0.802,0.035,1.064,0.035c0.172,0,0.342-0.015,0.495-0.035c0.243,0.469,0.703,0.999,1.204,1.516l1.163,1.195
			c0.272,0.273,0.987,1.055,1.122,1.15c0.073-0.027,0.073-0.201,0.073-0.494V2.174z"/>
		<path fill="#0F223E" d="M45.12,1.569c0-0.85-0.05-0.9-0.579-0.988l-0.235-0.035c-0.085-0.063-0.075-0.272,0.027-0.308
			c0.48,0.021,0.863,0.035,1.255,0.035c0.396,0,0.779-0.015,1.26-0.035c0.097,0.035,0.111,0.244,0.024,0.308l-0.234,0.035
			c-0.532,0.088-0.581,0.139-0.581,0.988v2.762c0,0.854,0.049,0.899,0.581,0.988l0.234,0.039c0.087,0.062,0.073,0.269-0.024,0.309
			c-0.469-0.026-0.879-0.04-1.26-0.04c-0.392,0-0.775,0.014-1.255,0.04c-0.102-0.04-0.112-0.247-0.027-0.309l0.235-0.039
			C45.07,5.23,45.12,5.186,45.12,4.331V1.569z"/>
		<path fill="#0F223E" d="M50.807,1.595c-0.371-0.815-0.418-0.875-0.714-0.951l-0.406-0.098c-0.076-0.074-0.089-0.248,0.01-0.308
			c0.321,0.021,0.729,0.035,1.11,0.035c0.448,0,0.804-0.015,1.198-0.035c0.101,0.048,0.113,0.244,0,0.308l-0.259,0.036
			c-0.319,0.05-0.319,0.21-0.049,0.815l0.606,1.367c0.307,0.704,0.515,1.162,0.7,1.566c0.251-0.517,0.459-1.035,0.693-1.55
			c0.259-0.569,0.604-1.425,0.727-1.783c0.089-0.258,0.073-0.342-0.295-0.416l-0.197-0.036c-0.114-0.074-0.072-0.235,0.024-0.308
			c0.36,0.021,0.678,0.035,1.011,0.035c0.395,0,0.681-0.015,0.878-0.035c0.12,0.048,0.147,0.244,0.06,0.308l-0.346,0.073
			c-0.37,0.076-0.444,0.187-0.838,1.022l-0.937,2.016c-0.37,0.788-0.73,1.686-0.877,2.095c-0.038,0.035-0.088,0.047-0.151,0.047
			c-0.047,0-0.097-0.012-0.145-0.047c-0.112-0.32-0.248-0.717-0.409-1.062L50.807,1.595z"/>
		<path fill="#0F223E" d="M59.362,1.569c0-0.85-0.051-0.891-0.52-0.988l-0.173-0.035c-0.088-0.05-0.071-0.261,0.025-0.308
			c0.186,0.012,0.372,0.021,0.558,0.021c0.197,0.015,0.392,0.015,0.589,0.015h1.754c0.543,0,1.032-0.015,1.146-0.035
			c0.015,0.147,0.076,0.726,0.137,1.258c-0.051,0.099-0.251,0.11-0.322,0.024c-0.072-0.32-0.148-0.481-0.222-0.595
			c-0.196-0.294-0.752-0.294-1.046-0.294h-0.544c-0.434,0-0.447,0.012-0.447,0.392v1.372c0,0.224,0,0.248,0.234,0.248h0.581
			c0.656,0,0.714-0.1,0.816-0.47l0.062-0.231c0.061-0.093,0.245-0.077,0.309,0.02c-0.024,0.358-0.024,0.582-0.024,0.866
			c0,0.308,0,0.53,0.024,0.886c-0.064,0.101-0.248,0.113-0.309,0.029l-0.062-0.237c-0.102-0.37-0.16-0.467-0.816-0.467h-0.581
			c-0.234,0-0.234,0.037-0.234,0.282V4.21c0,0.37,0.025,0.755,0.138,0.885c0.11,0.128,0.334,0.176,1.034,0.176
			c0.791,0,1.249-0.04,1.605-1.026c0.087-0.084,0.283-0.06,0.321,0.051c-0.062,0.519-0.234,1.137-0.37,1.372
			c-0.38-0.015-0.738-0.026-1.083-0.026c-0.347-0.014-0.68-0.014-1.013-0.014h-1.088c-0.392,0-0.775,0.014-1.371,0.04
			c-0.097-0.04-0.109-0.247-0.02-0.309l0.333-0.039c0.528-0.061,0.579-0.134,0.579-0.988V1.569z"/>
		<path fill="#0F223E" d="M67.296,4.331c0,0.854-0.048,0.876-0.581,0.988l-0.185,0.039c-0.113,0.049-0.1,0.269,0.022,0.309
			c0.435-0.027,0.815-0.04,1.21-0.04c0.384,0,0.792,0.013,1.31,0.04c0.097-0.04,0.11-0.247,0.022-0.309l-0.283-0.039
			c-0.531-0.077-0.581-0.135-0.581-0.988V3.456c0-0.174,0.027-0.194,0.347-0.194c0.197,0,0.395,0.048,0.495,0.194
			c0.258,0.396,0.591,0.936,0.899,1.332c0.544,0.69,0.988,0.924,1.727,0.924c0.237,0,0.406-0.021,0.519-0.06
			c0.051-0.037,0.051-0.147,0-0.197c-0.197-0.009-0.428-0.076-0.652-0.258c-0.408-0.333-0.953-0.937-1.57-1.975
			c-0.037-0.062-0.048-0.138,0-0.184c0.482-0.174,1.098-0.532,1.098-1.321c0-1.296-1.243-1.479-2.394-1.479
			c-0.676,0-1.366,0.021-2.045,0.071c-0.124,0.041-0.102,0.294,0,0.31L67,0.669c0.28,0.038,0.296,0.246,0.296,1.049V4.331z
			 M68.23,0.938c0-0.319,0.089-0.344,0.544-0.344c0.864,0,1.297,0.542,1.297,1.159c0,0.851-0.42,1.176-1.22,1.176
			c-0.607,0-0.621,0-0.621-0.311V0.938z"/>
		<path fill="#0F223E" d="M76.266,3.109c-0.592-0.309-1.101-0.79-1.101-1.48c0-0.898,0.691-1.528,1.939-1.528
			c0.43,0,0.729,0.114,1.146,0.186c0.103,0.21,0.188,0.678,0.175,1.211c-0.038,0.098-0.263,0.108-0.321,0.022
			c-0.101-0.433-0.422-1.058-1.146-1.058c-0.729,0-1.006,0.414-1.006,0.836c0,0.443,0.338,0.717,0.832,0.976l0.767,0.391
			c0.446,0.229,0.995,0.746,0.995,1.571c0,0.962-0.787,1.564-2.01,1.564c-0.754,0-1.248-0.258-1.422-0.38
			c-0.107-0.177-0.255-0.619-0.255-1.272c0.048-0.124,0.234-0.136,0.321-0.024c0.097,0.444,0.638,1.322,1.47,1.322
			c0.629,0,1.033-0.323,1.033-0.892c0-0.393-0.16-0.798-0.859-1.159L76.266,3.109z"/>
		<path fill="#0F223E" d="M82.722,1.569c0-0.85-0.051-0.9-0.582-0.988l-0.233-0.035c-0.089-0.063-0.075-0.272,0.022-0.308
			c0.484,0.021,0.865,0.035,1.259,0.035s0.774-0.015,1.261-0.035c0.098,0.035,0.11,0.244,0.021,0.308l-0.233,0.035
			c-0.528,0.088-0.581,0.139-0.581,0.988v2.762c0,0.854,0.053,0.899,0.581,0.988l0.233,0.039c0.089,0.062,0.076,0.269-0.021,0.309
			c-0.47-0.026-0.877-0.04-1.261-0.04c-0.394,0-0.774,0.014-1.259,0.04c-0.098-0.04-0.111-0.247-0.022-0.309l0.233-0.039
			c0.531-0.089,0.582-0.134,0.582-0.988V1.569z"/>
		<path fill="#0F223E" d="M89.802,0.952c0-0.32-0.016-0.32-0.26-0.32h-0.385c-0.751,0-1.07,0.076-1.37,0.922
			c-0.122,0.075-0.258,0.041-0.306-0.057c0.134-0.533,0.273-1.147,0.332-1.46c0.05-0.049,0.176-0.049,0.224,0
			c0.013,0.249,0.187,0.235,0.679,0.235h3.43c0.455,0,0.546-0.013,0.643-0.235c0.086-0.049,0.184-0.024,0.223,0.039
			c-0.1,0.318-0.146,0.976-0.125,1.443c-0.049,0.099-0.26,0.109-0.308,0.015c-0.085-0.804-0.409-0.902-1.147-0.902h-0.42
			c-0.237,0-0.274,0-0.274,0.32v3.38c0,0.853,0.053,0.927,0.583,0.986l0.333,0.04c0.085,0.062,0.075,0.27-0.024,0.309
			c-0.511-0.027-0.976-0.039-1.357-0.039c-0.396,0-0.84,0.012-1.358,0.039c-0.101-0.039-0.11-0.247-0.024-0.309l0.334-0.04
			c0.529-0.06,0.58-0.134,0.58-0.986V0.952z"/>
		<path fill="#0F223E" d="M97.932,3.987c0-0.381-0.036-0.481-0.347-1.052l-0.898-1.663c-0.26-0.493-0.383-0.604-0.704-0.669
			l-0.321-0.058c-0.086-0.075-0.061-0.272,0.035-0.308c0.41,0.021,0.691,0.035,1.137,0.035c0.371,0,0.654-0.015,1.052-0.035
			c0.095,0.048,0.134,0.244,0.011,0.308l-0.172,0.036C97.451,0.643,97.412,0.72,97.611,1.1l0.458,0.875
			c0.183,0.371,0.368,0.706,0.554,1.022c0.196-0.333,0.381-0.625,0.592-1.022l0.494-0.901c0.186-0.342,0.207-0.454-0.086-0.491
			l-0.258-0.036c-0.115-0.063-0.103-0.26,0.023-0.308c0.372,0.021,0.654,0.035,0.936,0.035c0.276,0,0.532-0.015,0.877-0.035
			c0.1,0.035,0.123,0.244,0.028,0.308l-0.298,0.058c-0.383,0.075-0.448,0.151-0.83,0.77l-0.764,1.23
			c-0.441,0.705-0.467,0.827-0.467,1.188v0.665c0,0.729,0.047,0.803,0.578,0.863l0.312,0.039c0.084,0.062,0.071,0.269-0.029,0.309
			c-0.539-0.027-0.948-0.04-1.329-0.04c-0.396,0-0.779,0.013-1.33,0.04c-0.101-0.04-0.115-0.247-0.031-0.309l0.314-0.039
			c0.53-0.061,0.577-0.135,0.577-0.863V3.987z"/>
		<path fill="#0F223E" d="M108.583,0.062c-1.789,0-3.049,1.26-3.049,2.901c0,1.555,1.136,2.798,3.049,2.798
			c1.736,0,2.999-1.211,2.999-2.875C111.583,1.381,110.57,0.062,108.583,0.062 M108.496,0.42c1.357,0,1.988,1.333,1.988,2.652
			c0,1.689-0.904,2.335-1.84,2.335c-1.435,0-2.012-1.37-2.012-2.644C106.632,1.023,107.605,0.42,108.496,0.42"/>
		<path fill="#0F223E" d="M114.702,1.566c0-0.852-0.062-0.876-0.521-0.986l-0.146-0.036c-0.086-0.064-0.075-0.273,0.024-0.311
			c0.168,0.013,0.346,0.026,0.529,0.026c0.188,0.011,0.385,0.011,0.58,0.011h1.715c0.545,0,1.014-0.011,1.186-0.037
			c0.012,0.149,0.025,0.729,0.064,1.262c-0.053,0.122-0.248,0.135-0.328,0.022c-0.07-0.321-0.145-0.481-0.217-0.593
			c-0.212-0.309-0.754-0.292-1.052-0.292h-0.479c-0.383,0-0.418,0-0.418,0.428v1.427c0,0.229,0,0.249,0.232,0.249h0.665
			c0.655,0,0.72-0.1,0.815-0.466l0.063-0.235c0.062-0.087,0.245-0.072,0.306,0.024c-0.019,0.359-0.019,0.577-0.019,0.864
			c0,0.31,0,0.532,0.019,0.888c-0.061,0.098-0.244,0.112-0.306,0.024l-0.063-0.233c-0.096-0.369-0.16-0.469-0.815-0.469h-0.665
			c-0.232,0-0.232,0.036-0.232,0.282v0.915c0,0.853,0.047,0.937,0.58,0.985l0.383,0.041c0.082,0.058,0.071,0.267-0.025,0.308
			c-0.62-0.025-1.025-0.041-1.408-0.041c-0.393,0-0.777,0.016-1.258,0.041c-0.1-0.041-0.111-0.25-0.027-0.308l0.235-0.041
			c0.53-0.086,0.582-0.133,0.582-0.985V1.566z"/>
		<path fill="#0F223E" d="M4.109,3.33c0.091,0.271,0.23,0.68,0.23,0.68s0.422-0.085,0.702-0.14C4.854,4.083,4.57,4.408,4.57,4.408
			s0.284,0.323,0.471,0.538C4.762,4.891,4.34,4.809,4.34,4.809s-0.139,0.408-0.23,0.676C4.017,5.217,3.876,4.809,3.876,4.809
			S3.456,4.891,3.176,4.946c0.188-0.215,0.472-0.538,0.472-0.538S3.364,4.083,3.176,3.87c0.28,0.055,0.701,0.14,0.701,0.14
			S4.017,3.601,4.109,3.33 M3.665,3.64C3.458,3.599,2.312,3.371,2.312,3.371s0.769,0.88,0.907,1.037
			C3.082,4.566,2.312,5.444,2.312,5.444S3.458,5.22,3.665,5.179c0.068,0.199,0.445,1.304,0.445,1.304s0.375-1.104,0.444-1.304
			C4.761,5.22,5.906,5.444,5.906,5.444S5.137,4.566,4.997,4.408c0.14-0.157,0.909-1.037,0.909-1.037S4.761,3.599,4.554,3.64
			C4.484,3.44,4.109,2.336,4.109,2.336S3.732,3.44,3.665,3.64"/>
		<path fill="#0F223E" d="M6.984,13.117c0.078-0.174,0.128-0.29,0.176-0.374c0.029-0.051,0.066-0.06,0.106-0.069l0.043-0.01
			c0.007-0.015,0.011-0.04-0.003-0.05C7.256,12.617,7.2,12.62,7.139,12.62c-0.055,0-0.112-0.003-0.184-0.006
			c-0.011,0.01-0.015,0.035-0.002,0.05l0.049,0.012c0.05,0.013,0.056,0.025,0.029,0.096c-0.091,0.237-0.193,0.478-0.286,0.694
			c-0.016-0.04-0.062-0.143-0.093-0.219l-0.125-0.311c-0.068-0.176-0.082-0.214-0.082-0.229c0-0.015,0.014-0.022,0.051-0.031
			l0.042-0.012c0.017-0.012,0.015-0.039-0.002-0.05c-0.09,0.003-0.146,0.006-0.225,0.006c-0.066,0-0.14-0.003-0.207-0.006
			c-0.016,0.006-0.016,0.035-0.006,0.048l0.042,0.009c0.07,0.014,0.086,0.038,0.132,0.155l0.3,0.729
			c0.03,0.073,0.057,0.157,0.079,0.227c0.008,0.006,0.019,0.01,0.032,0.01c0.012,0,0.025-0.004,0.029-0.01
			c0.03-0.087,0.109-0.29,0.179-0.447L6.984,13.117z"/>
		<path fill="#0F223E" d="M7.75,13.514c0,0.185,0.014,0.189,0.094,0.198l0.036,0.007c0.013,0.013,0.012,0.043-0.001,0.05
			c-0.075-0.003-0.152-0.005-0.224-0.005c-0.076,0-0.155,0.002-0.229,0.005c-0.013-0.007-0.014-0.037-0.003-0.05l0.037-0.007
			c0.08-0.009,0.094-0.198,0.094-0.198V12.87c0-0.186-0.014-0.191-0.094-0.202l-0.037-0.004c-0.011-0.011-0.01-0.043,0.003-0.049
			c0.074,0.003,0.15,0.006,0.229,0.006c0.072,0,0.149-0.003,0.224-0.006c0.013,0.006,0.014,0.038,0.001,0.049l-0.036,0.004
			c-0.08,0.011-0.094,0.017-0.094,0.202V13.514z"/>
		<path fill="#0F223E" d="M8.452,12.765c0-0.071,0-0.075-0.044-0.075H8.313c-0.155,0-0.2,0.019-0.263,0.158
			c-0.011,0.013-0.047,0.005-0.055-0.011c0.03-0.095,0.055-0.201,0.067-0.264c0.002-0.004,0.011-0.006,0.018-0.006
			c0.006,0,0.015,0.002,0.016,0.006c0.008,0.045,0.034,0.048,0.147,0.048h0.686c0.083,0,0.108-0.006,0.129-0.048
			c0.006-0.003,0.014-0.006,0.02-0.006c0.01,0,0.019,0.003,0.022,0.009c-0.017,0.073-0.032,0.219-0.025,0.275
			c-0.009,0.016-0.038,0.019-0.052,0.007c-0.022-0.136-0.054-0.169-0.233-0.169H8.694c-0.046,0-0.046,0.004-0.046,0.075v0.749
			c0,0.185,0.013,0.189,0.093,0.198l0.061,0.007c0.011,0.013,0.011,0.043-0.004,0.05c-0.098-0.003-0.173-0.005-0.247-0.005
			c-0.073,0-0.153,0.002-0.26,0.005c-0.015-0.007-0.017-0.041-0.003-0.05l0.07-0.009c0.078-0.007,0.094-0.012,0.094-0.196V12.765z"
			/>
		<path fill="#0F223E" d="M9.391,13.285c-0.042,0-0.057-0.001-0.029-0.074l0.074-0.202c0.029-0.082,0.044-0.126,0.052-0.138h0.004
			c0.007,0.012,0.017,0.044,0.049,0.138l0.071,0.207c0.021,0.06,0.009,0.069-0.043,0.069H9.391z M9.593,13.364
			c0.05,0,0.065,0,0.082,0.048l0.071,0.209c0.023,0.075,0.017,0.086-0.046,0.09l-0.037,0.008c-0.009,0.011-0.008,0.042,0.006,0.051
			c0.059-0.003,0.137-0.006,0.211-0.006c0.089,0,0.154,0.003,0.225,0.006c0.012-0.009,0.012-0.039-0.003-0.051l-0.026-0.008
			c-0.089-0.014-0.136-0.143-0.136-0.143l-0.249-0.727c-0.028-0.076-0.051-0.157-0.079-0.236c-0.006-0.009-0.014-0.015-0.028-0.015
			c-0.004,0-0.063,0.071-0.122,0.085c0.003,0.026-0.01,0.068-0.034,0.124l-0.236,0.619c-0.037,0.093-0.064,0.166-0.085,0.213
			c-0.026,0.055-0.044,0.071-0.096,0.078l-0.052,0.009c-0.012,0.016-0.01,0.042,0.003,0.051c0.06-0.003,0.115-0.006,0.171-0.006
			c0.07,0.003,0.128,0.003,0.185,0.006c0.013-0.007,0.014-0.039,0.003-0.051L9.27,13.71c-0.065-0.009-0.071-0.014-0.036-0.115
			l0.061-0.183c0.017-0.048,0.023-0.048,0.067-0.048H9.593z"/>
		<path fill="#0F223E" d="M6.566,15.448c0,0.184-0.015,0.19-0.088,0.199l-0.035,0.006c-0.011,0.012-0.009,0.045,0.003,0.049
			c0.07-0.003,0.14-0.004,0.199-0.004c0.03,0,0.063,0.001,0.101,0.004c0.037,0.004,0.08,0.007,0.128,0.007
			c0.142,0,0.278-0.021,0.388-0.085c0.197-0.108,0.283-0.307,0.283-0.497c0-0.26-0.134-0.443-0.323-0.519
			c-0.114-0.046-0.222-0.06-0.371-0.06c-0.154,0-0.28,0.006-0.392,0.016c-0.013,0.008-0.013,0.04-0.003,0.048l0.033,0.003
			c0.075,0.011,0.077,0.032,0.077,0.199V15.448z M6.747,14.772c0-0.083,0.001-0.121,0.013-0.131
			c0.011-0.009,0.062-0.022,0.127-0.022c0.263,0,0.444,0.166,0.444,0.508c0,0.294-0.126,0.515-0.405,0.515
			c-0.166,0-0.179-0.094-0.179-0.261V14.772z"/>
		<path fill="#0F223E" d="M7.774,14.803c0-0.182-0.017-0.189-0.095-0.2L7.65,14.597c-0.011-0.011-0.01-0.04,0.004-0.047
			c0.067,0.003,0.142,0.004,0.217,0.004c0.075,0,0.152-0.001,0.226-0.004c0.012,0.007,0.015,0.036,0.002,0.047l-0.037,0.006
			c-0.079,0.011-0.093,0.019-0.093,0.2v0.398c0,0.236,0.07,0.439,0.303,0.439c0.221,0,0.312-0.17,0.312-0.434v-0.22
			c0-0.129-0.002-0.29-0.033-0.34c-0.015-0.026-0.041-0.038-0.083-0.045l-0.034-0.004c-0.015-0.013-0.013-0.045,0.004-0.049
			c0.056,0.003,0.121,0.004,0.186,0.004c0.071,0,0.117-0.001,0.178-0.004c0.014,0.008,0.017,0.036,0.004,0.049l-0.038,0.007
			c-0.03,0.007-0.061,0.016-0.073,0.042c-0.023,0.051-0.023,0.206-0.023,0.34v0.209c0,0.157-0.024,0.305-0.112,0.399
			c-0.088,0.097-0.214,0.13-0.328,0.13c-0.159,0-0.27-0.034-0.348-0.11c-0.077-0.075-0.11-0.195-0.11-0.372V14.803z"/>
		<path fill="#0F223E" d="M9.286,14.803c0-0.179,0.014-0.183,0.094-0.197l0.037-0.005c0.013-0.011,0.011-0.044-0.004-0.051
			c-0.074,0.003-0.148,0.004-0.225,0.004c-0.076,0-0.152-0.001-0.235-0.004c-0.016,0.007-0.016,0.04-0.003,0.051l0.046,0.005
			c0.079,0.015,0.094,0.019,0.094,0.197v0.646c0,0.182-0.015,0.186-0.094,0.196l-0.051,0.008c-0.016,0.011-0.009,0.046,0.005,0.051
			c0.069-0.004,0.154-0.005,0.238-0.005h0.176c0.094,0,0.179,0,0.246,0.001c0.07,0,0.123,0.003,0.158,0.004
			c0.02-0.048,0.058-0.179,0.071-0.251c-0.01-0.015-0.034-0.019-0.053-0.01c-0.077,0.179-0.104,0.188-0.291,0.188
			c-0.136,0-0.162-0.015-0.181-0.039c-0.026-0.03-0.028-0.09-0.028-0.179V14.803z"/>
		<path fill="#0F223E" d="M9.621,15.139l-0.003,0.014h0.051l0.004-0.012c0.017-0.045,0.037-0.102,0.107-0.102
			c0.024,0.001,0.05,0.008,0.119,0.04l0.018,0.008c0.136,0.063,0.154,0.072,0.2,0.071c0.074,0.003,0.16-0.059,0.178-0.193
			l0.002-0.013l-0.052,0.001l-0.004,0.008c-0.015,0.075-0.048,0.108-0.106,0.108c-0.031-0.001-0.042-0.003-0.159-0.06
			c-0.11-0.05-0.146-0.061-0.184-0.061C9.792,14.949,9.65,14.938,9.621,15.139"/>
		<path fill="#0F223E" d="M16.581,17.029c0,0-0.699,0.445-2.641,0.195c-1.941-0.251-2.625,0.22-2.625,0.22v-6.195
			c0,0,0.564-0.468,2.505-0.218c1.94,0.25,2.761-0.075,2.761-0.075V17.029z M10.837,17.438c0,0-0.686-0.468-2.625-0.218
			c-1.941,0.25-2.641-0.198-2.641-0.198v-6.069c0,0,0.819,0.325,2.761,0.075c1.942-0.251,2.505,0.217,2.505,0.217V17.438z
			 M17.052,11.225v-0.912c0,0-1.192,0.525-3.233,0.236c-1.938-0.277-2.745,0.254-2.745,0.254s-0.808-0.531-2.747-0.254
			c-2.041,0.289-3.234-0.236-3.234-0.236v0.912H4.551v6.908h5.637c0,0,0.271,0.346,0.886,0.346c0.613,0,0.883-0.346,0.883-0.346
			h5.64v-6.908H17.052z"/>
		<path fill="#0F223E" d="M12.666,12.925c-0.01,0.014-0.037,0.015-0.046,0.004c-0.028-0.102-0.093-0.241-0.291-0.241
			c-0.189,0-0.381,0.148-0.381,0.485c0,0.35,0.199,0.521,0.392,0.521c0.188,0,0.27-0.139,0.312-0.244
			c0.012-0.016,0.037-0.01,0.044,0.008c-0.01,0.108-0.051,0.217-0.072,0.25c-0.018,0.003-0.034,0.008-0.051,0.012
			c-0.034,0.013-0.137,0.041-0.233,0.041c-0.147,0-0.276-0.034-0.383-0.109c-0.122-0.087-0.213-0.237-0.213-0.454
			c0-0.191,0.079-0.342,0.19-0.437c0.11-0.091,0.262-0.139,0.412-0.139c0.085,0,0.189,0.016,0.257,0.037
			c0.019,0.004,0.029,0.005,0.042,0.008C12.648,12.708,12.651,12.801,12.666,12.925"/>
		<path fill="#0F223E" d="M12.959,12.87c0-0.185-0.014-0.191-0.096-0.203l-0.028-0.003c-0.01-0.011-0.008-0.044,0.007-0.049
			c0.03,0.001,0.065,0.003,0.104,0.003c0.036,0.002,0.076,0.002,0.112,0.002h0.294c0.108,0,0.208-0.002,0.228-0.005
			c0.007,0.028,0.017,0.165,0.028,0.239c-0.006,0.016-0.042,0.019-0.053,0.007c-0.028-0.101-0.054-0.144-0.106-0.158
			c-0.04-0.01-0.091-0.014-0.136-0.014h-0.088c-0.072,0-0.072,0.004-0.072,0.102v0.314c0,0.045,0.003,0.046,0.04,0.046h0.056
			c0.147,0,0.175-0.001,0.188-0.077l0.012-0.06c0.011-0.011,0.045-0.011,0.052,0.001c-0.001,0.049-0.005,0.108-0.005,0.176
			c0,0.065,0.004,0.127,0.005,0.18c-0.007,0.013-0.041,0.013-0.052,0.004l-0.012-0.069c-0.013-0.071-0.041-0.077-0.188-0.077h-0.056
			c-0.037,0-0.04,0.006-0.04,0.048v0.198c0,0.09,0.004,0.152,0.029,0.182c0.021,0.024,0.023,0.039,0.165,0.039
			c0.215,0.003,0.227-0.049,0.284-0.188c0.014-0.013,0.046-0.008,0.055,0.01c-0.009,0.074-0.048,0.204-0.072,0.253
			c-0.036-0.004-0.065-0.004-0.137-0.004c-0.069-0.003-0.128-0.003-0.228-0.003h-0.191c-0.074,0-0.177,0.003-0.252,0.007
			c-0.014-0.008-0.016-0.038-0.004-0.051l0.061-0.007c0.082-0.009,0.096-0.014,0.096-0.2V12.87z"/>
		<path fill="#0F223E" d="M13.942,13.512c0,0.187-0.014,0.191-0.09,0.199l-0.034,0.007c-0.012,0.014-0.011,0.044,0.003,0.052
			c0.07-0.003,0.142-0.006,0.202-0.006c0.031,0,0.064,0.003,0.102,0.006c0.04,0,0.052,0.005,0.101,0.005
			c0.145,0,0.256-0.022,0.368-0.082c0.199-0.112,0.287-0.311,0.287-0.501c0-0.257-0.136-0.444-0.328-0.52
			c-0.114-0.045-0.199-0.057-0.349-0.057c-0.158,0-0.255,0.005-0.371,0.014c-0.012,0.01-0.012,0.039-0.001,0.049l0.033,0.006
			c0.077,0.01,0.077,0.028,0.077,0.194V13.512z M14.126,12.836c0-0.081,0.002-0.118,0.015-0.129c0.009-0.01,0.007-0.022,0.072-0.022
			c0.268,0,0.452,0.166,0.452,0.508c0,0.294-0.13,0.513-0.413,0.513c-0.169,0-0.126-0.092-0.126-0.26V12.836z"/>
		<path fill="#0F223E" d="M15.598,12.591c-0.33,0-0.563,0.262-0.563,0.615c0,0.31,0.205,0.584,0.561,0.584
			c0.317,0,0.554-0.253,0.554-0.596C16.15,12.878,15.962,12.591,15.598,12.591 M15.577,12.66c0.251,0,0.357,0.305,0.357,0.563
			c0,0.352-0.143,0.498-0.324,0.498c-0.268,0-0.36-0.327-0.36-0.565C15.25,12.787,15.422,12.66,15.577,12.66"/>
		<path fill="#0F223E" d="M12.172,15.653c-0.03-0.037-0.053-0.155-0.051-0.267c0.009-0.015,0.04-0.015,0.051-0.004
			c0.031,0.088,0.124,0.273,0.287,0.273c0.128,0,0.199-0.08,0.199-0.186c0-0.099-0.044-0.178-0.17-0.252l-0.073-0.042
			c-0.127-0.072-0.237-0.178-0.237-0.334c0-0.17,0.126-0.315,0.372-0.315c0.086,0,0.149,0.019,0.23,0.035
			c0.017,0.039,0.036,0.152,0.036,0.233c-0.01,0.016-0.04,0.019-0.055,0.005c-0.024-0.089-0.084-0.206-0.227-0.206
			c-0.136,0-0.192,0.091-0.192,0.184c0,0.07,0.049,0.15,0.162,0.21l0.104,0.059c0.109,0.058,0.231,0.165,0.231,0.34
			c0,0.198-0.147,0.34-0.391,0.34C12.294,15.727,12.207,15.674,12.172,15.653"/>
		<path fill="#0F223E" d="M13.161,14.814c0-0.158-0.002-0.184-0.073-0.193l-0.059-0.009c-0.01-0.011-0.01-0.04,0.003-0.047
			c0.116-0.015,0.219-0.016,0.371-0.016c0.159,0,0.277,0.022,0.353,0.07c0.086,0.053,0.141,0.144,0.141,0.259
			c0,0.263-0.243,0.335-0.376,0.335c-0.014,0-0.028,0-0.042-0.002c-0.012-0.009-0.013-0.032-0.007-0.043
			c0.154-0.03,0.21-0.145,0.21-0.286s-0.085-0.263-0.241-0.263c-0.083,0-0.083,0.004-0.083,0.071v0.757
			c0,0.183,0.012,0.189,0.092,0.197l0.062,0.008c0.01,0.013,0.009,0.045-0.003,0.049c-0.099-0.002-0.175-0.004-0.249-0.004
			c-0.072,0-0.148,0.002-0.219,0.004c-0.012-0.004-0.013-0.036-0.001-0.049l0.027-0.004c0.079-0.012,0.094-0.019,0.094-0.201V14.814
			z"/>
		<path fill="#0F223E" d="M14.154,15.448c0,0.184-0.016,0.19-0.094,0.198l-0.063,0.007c-0.011,0.012-0.009,0.045,0.004,0.049
			c0.074-0.003,0.177-0.004,0.251-0.004h0.192c0.1,0,0.185,0,0.255,0.001c0.069,0,0.104,0.002,0.139,0.003
			c0.027-0.047,0.061-0.178,0.072-0.251c-0.011-0.017-0.04-0.021-0.055-0.008c-0.057,0.14-0.074,0.188-0.289,0.185
			c-0.139,0-0.17-0.013-0.188-0.037c-0.025-0.03-0.03-0.09-0.03-0.181v-0.192c0-0.045,0.004-0.048,0.04-0.048h0.081
			c0.146,0,0.176,0.003,0.188,0.076l0.009,0.069c0.016,0.013,0.048,0.013,0.056-0.001c0-0.055-0.004-0.116-0.004-0.184
			c0-0.062,0.004-0.124,0.004-0.171c-0.008-0.016-0.04-0.016-0.056-0.004l-0.009,0.059c-0.012,0.077-0.042,0.077-0.188,0.077h-0.081
			c-0.036,0-0.04,0-0.04-0.044v-0.322c0-0.099,0-0.103,0.072-0.103h0.114c0.045,0,0.096,0.004,0.132,0.015
			c0.056,0.014,0.081,0.057,0.108,0.158c0.015,0.013,0.048,0.007,0.053-0.008c-0.01-0.073-0.02-0.21-0.027-0.238
			c-0.022,0.003-0.118,0.004-0.227,0.004h-0.321c-0.035,0-0.075,0-0.111-0.001c-0.038,0-0.074-0.001-0.104-0.003
			c-0.014,0.007-0.016,0.037-0.006,0.051l0.029,0.003c0.078,0.011,0.094,0.017,0.094,0.199V15.448z"/>
		<path fill="#0F223E" d="M15.125,15.653c-0.032-0.037-0.053-0.155-0.049-0.267c0.009-0.015,0.036-0.015,0.051-0.004
			c0.032,0.088,0.121,0.273,0.286,0.273c0.126,0,0.199-0.08,0.199-0.186c0-0.099-0.045-0.178-0.17-0.252l-0.073-0.042
			c-0.126-0.072-0.239-0.178-0.239-0.334c0-0.17,0.126-0.315,0.371-0.315c0.087,0,0.154,0.019,0.231,0.035
			c0.019,0.039,0.035,0.152,0.035,0.233c-0.008,0.016-0.037,0.019-0.053,0.005c-0.025-0.089-0.085-0.206-0.228-0.206
			c-0.135,0-0.191,0.091-0.191,0.184c0,0.07,0.05,0.15,0.162,0.21l0.105,0.059c0.108,0.058,0.23,0.165,0.23,0.34
			c0,0.198-0.147,0.34-0.392,0.34C15.245,15.727,15.159,15.674,15.125,15.653"/>
		<path fill="#0F223E" d="M20.634,10.479c0,4.069-1.253,7.299-3.048,9.839c0.003,0,0,0,0,0s-0.347-0.133-0.889-0.133
			c-1.15,0-1.495,0.676-2.869,0.676c-0.833,0-1.187-0.368-1.869-0.56v-1.656c0,0-0.204,0.289-0.883,0.289
			c-0.682,0-0.884-0.29-0.884-0.29v1.652c-0.682,0.193-1.037,0.562-1.869,0.562c-1.373,0-1.717-0.676-2.869-0.676
			c-0.548,0-0.897,0.133-0.897,0.133s-0.005,0.003,0,0c-1.795-2.538-3.047-5.764-3.047-9.836L1.509,1.77h9.564h9.564L20.634,10.479z
			 M14.914,23.334c-0.285,0.247-0.416,0.326-0.68,0.382c-0.133,0.027-0.408,0.039-0.408,0.039c-1.127,0-1.377-0.676-2.751-0.676
			c-1.376,0-1.625,0.676-2.752,0.676c0,0-0.276-0.012-0.407-0.039c-0.266-0.056-0.395-0.135-0.682-0.382
			c-0.556-0.481-1.037-0.985-1.543-1.568c1.034,0.002,1.292,0.626,2.632,0.626c1.127,0,1.376-0.677,2.752-0.677
			c1.374,0,1.624,0.677,2.751,0.677c1.34,0,1.594-0.624,2.631-0.626C15.952,22.349,15.469,22.853,14.914,23.334 M11.073,26.099
			c-0.548-0.312-1.078-0.641-1.644-1.031c0.442-0.197,0.828-0.493,1.646-0.493c0.811,0,1.202,0.296,1.643,0.493
			C12.154,25.456,11.618,25.788,11.073,26.099 M11.073,0.26H0l0.001,10.064c0,9.599,6.098,14.736,11.072,17.54
			c4.974-2.804,11.072-7.941,11.072-17.54L22.146,0.26H11.073z"/>
		<path fill="#0F223E" d="M11.953,8.541h3.812l1.286,0.744V6.249l-1.286,0.744h-3.812l0.003,0.002V4.046l0.748-1.294H9.443
			l0.748,1.294v2.947H6.379L5.093,6.249v3.036l1.286-0.744h3.812v1.548c0,0,0.513,0.058,0.883,0.265
			c0.369-0.207,0.882-0.265,0.882-0.265V8.541H11.953z"/>
	</g>
</g>
<g id="Layer_2">
	<g>
		<path fill="#0F223E" d="M32.794,29.815c-0.085,0.098-0.305,0.109-0.391,0.024c-0.208-0.769-0.757-1.782-2.368-1.782
			c-1.55,0-3.113,1.099-3.113,3.602c0,2.6,1.624,3.869,3.198,3.869c1.538,0,2.209-1.025,2.551-1.818
			c0.11-0.11,0.305-0.062,0.366,0.049c-0.085,0.817-0.415,1.623-0.586,1.855c-0.146,0.023-0.293,0.072-0.427,0.109
			c-0.269,0.086-1.111,0.293-1.904,0.293c-1.208,0-2.246-0.244-3.125-0.818c-0.989-0.646-1.733-1.758-1.733-3.356
			c0-1.429,0.635-2.539,1.538-3.235c0.903-0.684,2.136-1.037,3.369-1.037c0.696,0,1.538,0.122,2.112,0.269
			c0.146,0.036,0.232,0.049,0.342,0.073C32.647,28.192,32.672,28.912,32.794,29.815z"/>
		<path fill="#0F223E" d="M38.709,33.355c0,1.733-1.221,2.637-2.673,2.637c-1.404,0-2.576-0.892-2.576-2.49
			c0-1.636,1.245-2.661,2.673-2.661C37.513,30.841,38.709,31.769,38.709,33.355z M36.183,35.504c0.842,0,1.086-1.001,1.086-1.94
			c0-1.025-0.354-2.234-1.257-2.234c-0.623,0-1.111,0.635-1.111,1.99C34.901,34.43,35.304,35.504,36.183,35.504z"/>
		<path fill="#0F223E" d="M39.658,29.132c0-0.818-0.012-0.891-0.317-1.086l-0.134-0.086c-0.073-0.049-0.085-0.244,0-0.281
			c0.476-0.134,1.111-0.391,1.599-0.586c0.073-0.012,0.146,0.037,0.171,0.098c-0.024,0.488-0.037,1.246-0.037,1.771v5.407
			c0,0.904,0.049,1.038,0.464,1.1l0.269,0.036c0.085,0.085,0.073,0.306-0.024,0.354c-0.5-0.025-0.916-0.037-1.367-0.037
			c-0.403,0-0.818,0.012-1.318,0.037c-0.098-0.049-0.11-0.27-0.024-0.354l0.256-0.036c0.415-0.062,0.464-0.195,0.464-1.1V29.132z"/>
		<path fill="#0F223E" d="M42.671,29.132c0-0.818-0.012-0.891-0.317-1.086L42.22,27.96c-0.073-0.049-0.085-0.244,0-0.281
			c0.476-0.134,1.111-0.391,1.599-0.586c0.073-0.012,0.146,0.037,0.171,0.098c-0.024,0.488-0.037,1.246-0.037,1.771v5.407
			c0,0.904,0.049,1.038,0.464,1.1l0.269,0.036c0.085,0.085,0.073,0.306-0.024,0.354c-0.5-0.025-0.916-0.037-1.367-0.037
			c-0.403,0-0.818,0.012-1.318,0.037c-0.098-0.049-0.11-0.27-0.024-0.354l0.256-0.036c0.415-0.062,0.464-0.195,0.464-1.1V29.132z"/>
		<path fill="#0F223E" d="M46.502,32.929c-0.232,0-0.256,0.012-0.256,0.158c0,1.099,0.757,1.978,1.843,1.978
			c0.488,0,0.891-0.159,1.172-0.61c0.122-0.037,0.256,0.086,0.269,0.195c-0.415,0.977-1.318,1.343-2.063,1.343
			c-1.416,0-2.356-1.05-2.356-2.441c0-1.38,0.94-2.71,2.576-2.71c0.903,0,1.831,0.586,1.831,1.648c0,0.109-0.012,0.183-0.061,0.28
			c-0.073,0.11-0.354,0.159-0.842,0.159H46.502z M47.625,32.44c0.354,0,0.513-0.037,0.598-0.086
			c0.073-0.049,0.122-0.146,0.122-0.256c0-0.439-0.281-0.794-0.806-0.794c-0.818,0-1.196,0.794-1.196,1.05
			c0,0.049,0.024,0.086,0.171,0.086H47.625z"/>
		<path fill="#0F223E" d="M54.325,31.915c0.037,0.122,0.061,0.256,0.061,0.525c0,1.025-0.684,2.014-2.234,2.014
			c-0.146,0-0.305-0.024-0.464-0.049c-0.195,0.098-0.378,0.256-0.378,0.477c0,0.244,0.171,0.476,0.671,0.476
			c0.354,0,0.818-0.024,1.343-0.024c0.879,0,1.99,0.146,1.99,1.477c0,0.635-0.439,1.233-0.77,1.49
			c-0.537,0.439-1.318,0.805-2.368,0.805c-1.721,0-2.283-0.805-2.283-1.439c0-0.184,0.024-0.342,0.171-0.525
			c0.11-0.122,0.574-0.391,0.757-0.549c0.098-0.074,0.183-0.232,0.073-0.27c-0.427-0.146-0.806-0.537-0.806-1.013
			c0-0.122,0.049-0.22,0.195-0.306c0.183-0.098,0.781-0.476,0.781-0.646c0-0.037,0-0.109-0.049-0.135
			c-0.415-0.17-0.903-0.658-0.903-1.452c0-1.099,0.916-1.929,2.234-1.929c0.488,0,0.916,0.098,1.233,0.256
			c0.256,0.123,0.391,0.184,0.537,0.184h1.197c0.049,0.037,0.098,0.122,0.098,0.22c0,0.244-0.098,0.391-0.195,0.415H54.325z
			 M52.274,36.419c-0.427,0-0.684,0.037-0.83,0.146c-0.208,0.159-0.366,0.379-0.366,0.684c0,0.745,0.659,1.233,1.599,1.233
			c1.038,0,1.624-0.427,1.624-1.136c0-0.622-0.574-0.928-1.331-0.928H52.274z M52.372,33.99c0.464,0,0.806-0.403,0.806-1.257
			c0-0.83-0.354-1.429-0.903-1.429c-0.427,0-0.806,0.403-0.806,1.245C51.468,33.489,51.908,33.99,52.372,33.99z"/>
		<path fill="#0F223E" d="M56.884,32.929c-0.231,0-0.256,0.012-0.256,0.158c0,1.099,0.757,1.978,1.844,1.978
			c0.488,0,0.891-0.159,1.172-0.61c0.121-0.037,0.256,0.086,0.268,0.195c-0.414,0.977-1.318,1.343-2.062,1.343
			c-1.416,0-2.355-1.05-2.355-2.441c0-1.38,0.939-2.71,2.575-2.71c0.903,0,1.831,0.586,1.831,1.648c0,0.109-0.012,0.183-0.061,0.28
			c-0.074,0.11-0.354,0.159-0.843,0.159H56.884z M58.007,32.44c0.354,0,0.514-0.037,0.599-0.086
			c0.073-0.049,0.122-0.146,0.122-0.256c0-0.439-0.281-0.794-0.806-0.794c-0.817,0-1.196,0.794-1.196,1.05
			c0,0.049,0.024,0.086,0.171,0.086H58.007z"/>
		<path fill="#0F223E" d="M68.453,33.355c0,1.733-1.221,2.637-2.674,2.637c-1.404,0-2.576-0.892-2.576-2.49
			c0-1.636,1.246-2.661,2.674-2.661C67.255,30.841,68.453,31.769,68.453,33.355z M65.925,35.504c0.842,0,1.086-1.001,1.086-1.94
			c0-1.025-0.354-2.234-1.257-2.234c-0.622,0-1.11,0.635-1.11,1.99C64.644,34.43,65.046,35.504,65.925,35.504z"/>
		<path fill="#0F223E" d="M71.305,31.585c-0.257,0-0.257,0.025-0.257,0.379v2.404c0,0.904,0.049,1.038,0.477,1.087l0.477,0.049
			c0.085,0.085,0.072,0.306-0.025,0.354c-0.549-0.025-1.025-0.037-1.599-0.037c-0.403,0-0.817,0.012-1.318,0.037
			c-0.098-0.049-0.11-0.27-0.024-0.354l0.269-0.036c0.415-0.062,0.464-0.195,0.464-1.1v-2.416c0-0.33-0.012-0.367-0.22-0.367h-0.439
			c-0.098-0.049-0.122-0.207-0.036-0.28l0.524-0.269c0.085-0.049,0.171-0.122,0.171-0.269v-0.22c0-0.525,0.049-1.123,0.256-1.746
			c0.318-0.964,1.136-1.709,2.283-1.709c0.842,0,1.392,0.379,1.392,0.892c0,0.342-0.306,0.586-0.599,0.586
			c-0.183,0-0.28-0.073-0.354-0.171c-0.391-0.562-0.659-0.806-0.952-0.806c-0.415,0-0.745,0.83-0.745,2.661v0.366
			c0,0.366,0.013,0.391,0.27,0.391h1.281c0.049,0.036,0.073,0.11,0.073,0.195c0,0.208-0.073,0.317-0.171,0.378H71.305z"/>
		<path fill="#0F223E" d="M77.625,32.831c-0.317,0-0.305,0-0.415,0.329l-0.501,1.465c-0.244,0.72-0.195,0.745,0.257,0.817
			l0.354,0.062c0.085,0.085,0.072,0.306-0.025,0.354c-0.391-0.025-0.793-0.025-1.293-0.037c-0.403,0-0.781,0.012-1.209,0.037
			c-0.086-0.062-0.098-0.244-0.012-0.354l0.365-0.062c0.354-0.061,0.488-0.158,0.672-0.561c0.146-0.318,0.342-0.83,0.598-1.49
			l1.673-4.346c0.146-0.391,0.269-0.684,0.231-0.891c0.428-0.086,0.83-0.586,0.855-0.586c0.098,0,0.158,0.037,0.207,0.098
			c0.195,0.549,0.354,1.123,0.549,1.672l1.758,5.115c0.281,0.818,0.342,0.891,0.965,1.014l0.184,0.036
			c0.098,0.085,0.098,0.293,0.012,0.354c-0.5-0.025-0.952-0.037-1.587-0.037c-0.524,0-1.062,0.024-1.489,0.037
			c-0.098-0.062-0.109-0.281-0.037-0.354l0.27-0.036c0.439-0.062,0.5-0.135,0.316-0.647l-0.573-1.66
			c-0.11-0.329-0.159-0.329-0.501-0.329H77.625z M79.089,32.281c0.342,0,0.391-0.024,0.293-0.317l-0.513-1.465
			c-0.22-0.646-0.28-0.879-0.342-0.965h-0.024c-0.049,0.086-0.158,0.391-0.366,0.965l-0.513,1.428
			c-0.122,0.354-0.098,0.354,0.195,0.354H79.089z"/>
		<path fill="#0F223E" d="M83.687,32.574c0-0.55,0-0.696-0.305-0.879l-0.146-0.085c-0.037-0.049-0.037-0.221,0.012-0.281
			c0.525-0.171,1.172-0.439,1.539-0.659c0.072,0,0.146,0.036,0.17,0.11c-0.012,0.231-0.023,0.439-0.023,0.549
			c0,0.086,0.049,0.146,0.121,0.146c0.379-0.269,0.781-0.635,1.197-0.635c0.427,0,0.671,0.281,0.671,0.598
			c0,0.477-0.354,0.709-0.684,0.709c-0.122,0-0.231-0.037-0.329-0.098c-0.306-0.208-0.514-0.232-0.586-0.232
			c-0.281,0-0.354,0.281-0.354,0.879v1.672c0,0.904,0.049,1.038,0.476,1.087l0.477,0.049c0.086,0.085,0.073,0.306-0.024,0.354
			c-0.732-0.025-1.147-0.037-1.599-0.037c-0.403,0-0.807,0.012-1.27,0.037c-0.098-0.049-0.11-0.27-0.025-0.354l0.221-0.036
			c0.414-0.074,0.463-0.195,0.463-1.1V32.574z"/>
		<path fill="#0F223E" d="M89.361,31.549c-0.22,0-0.232,0.024-0.232,0.415v1.88c0,0.769,0.11,1.452,0.892,1.452
			c0.244,0,0.391-0.085,0.586-0.219c0.11,0.012,0.183,0.109,0.159,0.244c-0.244,0.342-0.807,0.671-1.551,0.671
			c-1.16,0-1.367-0.671-1.367-1.526v-2.478c0-0.427-0.024-0.439-0.22-0.439h-0.427c-0.123-0.062-0.146-0.257-0.037-0.329
			c0.415-0.159,0.695-0.318,0.965-0.514c0.231-0.17,0.5-0.427,0.671-0.756c0.11-0.074,0.28-0.037,0.342,0.061v0.732
			c0,0.195,0,0.232,0.231,0.232h1.209c0.073,0.036,0.098,0.134,0.098,0.256c-0.012,0.146-0.061,0.256-0.158,0.317H89.361z"/>
		<path fill="#0F223E" d="M91.203,35.602c-0.123-0.231-0.195-0.854-0.172-1.38c0.074-0.098,0.257-0.109,0.342-0.023
			c0.221,0.684,0.672,1.33,1.318,1.33c0.379,0,0.684-0.256,0.684-0.684c0-0.451-0.402-0.744-0.83-0.952
			c-0.635-0.306-1.293-0.757-1.293-1.538c-0.013-0.952,0.805-1.514,1.818-1.514c0.5,0,0.965,0.146,1.135,0.244
			c0.123,0.256,0.184,0.635,0.184,1.184c-0.037,0.098-0.244,0.135-0.33,0.062c-0.183-0.562-0.573-1.025-1.049-1.025
			c-0.391,0-0.684,0.28-0.684,0.635s0.354,0.61,0.817,0.83c0.659,0.317,1.354,0.732,1.354,1.696c0,1.062-0.939,1.526-1.904,1.526
			C92.093,35.992,91.593,35.895,91.203,35.602z"/>
		<path fill="#0F223E" d="M101.488,34.271c-0.036,0.709,0.146,1.074,0.586,1.074c0.208,0,0.379-0.134,0.416-0.134
			c0.061,0,0.146,0.134,0.109,0.244c-0.244,0.342-0.842,0.537-1.221,0.537c-0.305,0-0.646-0.085-0.879-0.342
			c-0.086-0.085-0.135-0.146-0.195-0.146s-0.146,0.062-0.33,0.171c-0.231,0.146-0.598,0.317-1.037,0.317
			c-0.83,0-1.245-0.573-1.245-1.185c0-0.439,0.171-0.842,1.013-1.135c0.428-0.146,0.892-0.317,1.344-0.488
			c0.244-0.086,0.28-0.195,0.28-0.317l0.013-0.317c0.023-0.623-0.146-1.16-0.745-1.16c-0.342,0-0.599,0.184-0.647,0.537
			c-0.023,0.232-0.098,0.354-0.231,0.439c-0.171,0.11-0.513,0.221-0.781,0.221c-0.159,0-0.231-0.086-0.231-0.195
			c0-0.146,0.072-0.403,0.476-0.781c0.378-0.354,1.257-0.77,1.88-0.77c0.965,0,1.562,0.451,1.514,1.525L101.488,34.271z
			 M100.292,33.856c0-0.135-0.037-0.208-0.098-0.208c-0.098,0-0.318,0.062-0.537,0.146c-0.342,0.122-0.66,0.293-0.66,0.817
			c0,0.318,0.221,0.709,0.684,0.709c0.439,0,0.574-0.293,0.586-0.586L100.292,33.856z"/>
		<path fill="#0F223E" d="M104.648,34.368c0,0.904,0.049,1.051,0.463,1.111l0.184,0.024c0.086,0.085,0.073,0.306-0.024,0.354
			c-0.427-0.025-0.843-0.037-1.294-0.037c-0.391,0-0.806,0.012-1.318,0.037c-0.098-0.049-0.109-0.27-0.024-0.354l0.269-0.036
			c0.415-0.062,0.464-0.195,0.464-1.1v-1.794c0-0.55,0-0.696-0.306-0.879l-0.146-0.085c-0.036-0.049-0.036-0.221,0.013-0.281
			c0.524-0.146,1.196-0.439,1.587-0.659c0.086,0,0.135,0.049,0.158,0.098c-0.023,0.231-0.023,0.464-0.023,0.562
			c0,0.086,0.036,0.109,0.109,0.122c0.574-0.317,0.916-0.61,1.672-0.61c0.989,0,1.453,0.684,1.453,1.636v1.892
			c0,0.904,0.049,1.051,0.464,1.1l0.28,0.036c0.086,0.085,0.074,0.306-0.023,0.354c-0.514-0.025-0.928-0.037-1.38-0.037
			c-0.403,0-0.817,0.012-1.245,0.037c-0.098-0.049-0.109-0.27-0.024-0.354l0.183-0.024c0.416-0.061,0.465-0.207,0.465-1.111v-1.684
			c0-0.623-0.244-1.111-0.977-1.111c-0.379,0-0.684,0.195-0.807,0.379c-0.158,0.219-0.17,0.329-0.17,0.781V34.368z"/>
		<path fill="#0F223E" d="M114.031,33.831c0,1.111,0.086,1.49,0.293,1.49c0.135,0,0.33-0.037,0.513-0.11
			c0.098,0.073,0.122,0.366-0.013,0.439c-0.622,0.062-1.488,0.269-1.928,0.464c-0.062-0.012-0.123-0.061-0.146-0.135l0.023-0.183
			c0.025-0.183,0.013-0.28-0.012-0.342l-0.061-0.013c-0.367,0.27-0.818,0.55-1.404,0.55c-1.392,0-2.258-1.123-2.258-2.344
			c0-1.758,1.403-2.808,2.93-2.808c0.316,0,0.549,0.037,0.707,0.086c0.049-0.013,0.074-0.062,0.074-0.195v-1.6
			c0-0.818-0.025-0.891-0.281-1.062l-0.171-0.109c-0.073-0.049-0.085-0.244,0-0.281c0.476-0.134,1.11-0.391,1.599-0.586
			c0.074-0.012,0.146,0.037,0.172,0.098c-0.025,0.488-0.037,1.246-0.037,1.771V33.831z M112.75,32.33
			c0-0.244-0.037-0.415-0.159-0.586c-0.171-0.231-0.439-0.415-0.817-0.415c-0.83,0-1.355,0.818-1.355,1.844
			c0,1.257,0.659,2.087,1.525,2.087c0.293,0,0.623-0.159,0.721-0.269c0.061-0.061,0.086-0.171,0.086-0.342V32.33z"/>
		<path fill="#0F223E" d="M120.263,33.808c0,0.609,0.025,1.049,0.208,1.257c0.146,0.171,0.342,0.269,1.318,0.269
			c1.354,0,1.55-0.061,2.112-1.318c0.121-0.061,0.316-0.024,0.378,0.073c-0.098,0.513-0.366,1.44-0.513,1.771
			c-0.513-0.025-1.562-0.037-2.93-0.037h-1.27c-0.623,0-1.232,0.012-1.746,0.037c-0.098-0.049-0.134-0.293-0.023-0.354l0.365-0.062
			c0.574-0.098,0.684-0.109,0.684-1.379v-4.541c0-1.27-0.109-1.307-0.684-1.392l-0.342-0.049c-0.085-0.062-0.085-0.306,0.025-0.354
			c0.609,0.025,1.159,0.037,1.721,0.037c0.537,0,1.086-0.012,1.623-0.037c0.11,0.049,0.123,0.293,0.025,0.354l-0.27,0.049
			c-0.573,0.098-0.684,0.122-0.684,1.392V33.808z"/>
		<path fill="#0F223E" d="M125.863,32.929c-0.232,0-0.257,0.012-0.257,0.158c0,1.099,0.757,1.978,1.843,1.978
			c0.488,0,0.892-0.159,1.172-0.61c0.123-0.037,0.257,0.086,0.27,0.195c-0.416,0.977-1.318,1.343-2.063,1.343
			c-1.416,0-2.356-1.05-2.356-2.441c0-1.38,0.94-2.71,2.576-2.71c0.903,0,1.831,0.586,1.831,1.648c0,0.109-0.013,0.183-0.062,0.28
			c-0.072,0.11-0.354,0.159-0.842,0.159H125.863z M126.986,32.44c0.354,0,0.512-0.037,0.598-0.086
			c0.073-0.049,0.122-0.146,0.122-0.256c0-0.439-0.28-0.794-0.806-0.794c-0.818,0-1.196,0.794-1.196,1.05
			c0,0.049,0.024,0.086,0.171,0.086H126.986z"/>
		<path fill="#0F223E" d="M131.487,31.549c-0.22,0-0.231,0.024-0.231,0.415v1.88c0,0.769,0.109,1.452,0.891,1.452
			c0.244,0,0.391-0.085,0.586-0.219c0.109,0.012,0.184,0.109,0.158,0.244c-0.244,0.342-0.805,0.671-1.55,0.671
			c-1.159,0-1.367-0.671-1.367-1.526v-2.478c0-0.427-0.024-0.439-0.22-0.439h-0.428c-0.121-0.062-0.146-0.257-0.036-0.329
			c0.415-0.159,0.696-0.318,0.964-0.514c0.232-0.17,0.501-0.427,0.672-0.756c0.109-0.074,0.281-0.037,0.342,0.061v0.732
			c0,0.195,0,0.232,0.232,0.232h1.208c0.073,0.036,0.098,0.134,0.098,0.256c-0.013,0.146-0.062,0.256-0.159,0.317H131.487z"/>
		<path fill="#0F223E" d="M135.269,31.549c-0.22,0-0.232,0.024-0.232,0.415v1.88c0,0.769,0.11,1.452,0.892,1.452
			c0.244,0,0.391-0.085,0.586-0.219c0.11,0.012,0.183,0.109,0.159,0.244c-0.244,0.342-0.807,0.671-1.551,0.671
			c-1.16,0-1.367-0.671-1.367-1.526v-2.478c0-0.427-0.024-0.439-0.22-0.439h-0.427c-0.123-0.062-0.146-0.257-0.037-0.329
			c0.415-0.159,0.695-0.318,0.965-0.514c0.231-0.17,0.5-0.427,0.671-0.756c0.11-0.074,0.28-0.037,0.342,0.061v0.732
			c0,0.195,0,0.232,0.231,0.232h1.209c0.073,0.036,0.098,0.134,0.098,0.256c-0.012,0.146-0.061,0.256-0.158,0.317H135.269z"/>
		<path fill="#0F223E" d="M138.283,32.929c-0.232,0-0.257,0.012-0.257,0.158c0,1.099,0.757,1.978,1.843,1.978
			c0.488,0,0.892-0.159,1.172-0.61c0.123-0.037,0.257,0.086,0.27,0.195c-0.416,0.977-1.318,1.343-2.063,1.343
			c-1.416,0-2.356-1.05-2.356-2.441c0-1.38,0.94-2.71,2.576-2.71c0.903,0,1.831,0.586,1.831,1.648c0,0.109-0.013,0.183-0.062,0.28
			c-0.072,0.11-0.354,0.159-0.842,0.159H138.283z M139.406,32.44c0.354,0,0.512-0.037,0.598-0.086
			c0.073-0.049,0.122-0.146,0.122-0.256c0-0.439-0.28-0.794-0.806-0.794c-0.818,0-1.196,0.794-1.196,1.05
			c0,0.049,0.024,0.086,0.171,0.086H139.406z"/>
		<path fill="#0F223E" d="M142.455,32.574c0-0.55,0-0.696-0.306-0.879l-0.146-0.085c-0.036-0.049-0.036-0.221,0.013-0.281
			c0.524-0.171,1.172-0.439,1.537-0.659c0.074,0,0.146,0.036,0.172,0.11c-0.013,0.231-0.025,0.439-0.025,0.549
			c0,0.086,0.049,0.146,0.123,0.146c0.378-0.269,0.781-0.635,1.195-0.635c0.428,0,0.672,0.281,0.672,0.598
			c0,0.477-0.354,0.709-0.684,0.709c-0.122,0-0.232-0.037-0.33-0.098c-0.305-0.208-0.512-0.232-0.586-0.232
			c-0.28,0-0.354,0.281-0.354,0.879v1.672c0,0.904,0.049,1.038,0.477,1.087l0.476,0.049c0.085,0.085,0.073,0.306-0.024,0.354
			c-0.732-0.025-1.147-0.037-1.6-0.037c-0.402,0-0.805,0.012-1.27,0.037c-0.098-0.049-0.109-0.27-0.023-0.354l0.219-0.036
			c0.416-0.074,0.465-0.195,0.465-1.1V32.574z"/>
		<path fill="#0F223E" d="M146.089,35.602c-0.123-0.231-0.195-0.854-0.172-1.38c0.074-0.098,0.257-0.109,0.342-0.023
			c0.221,0.684,0.672,1.33,1.318,1.33c0.379,0,0.684-0.256,0.684-0.684c0-0.451-0.402-0.744-0.83-0.952
			c-0.635-0.306-1.293-0.757-1.293-1.538c-0.013-0.952,0.805-1.514,1.818-1.514c0.5,0,0.965,0.146,1.135,0.244
			c0.123,0.256,0.184,0.635,0.184,1.184c-0.037,0.098-0.244,0.135-0.33,0.062c-0.183-0.562-0.573-1.025-1.049-1.025
			c-0.391,0-0.684,0.28-0.684,0.635s0.354,0.61,0.817,0.83c0.659,0.317,1.354,0.732,1.354,1.696c0,1.062-0.939,1.526-1.904,1.526
			C146.98,35.992,146.48,35.895,146.089,35.602z"/>
	</g>
</g>
</svg>
