<?xml version="1.0" encoding="utf-8"?>
<!-- Generator: Adobe Illustrator 16.0.0, SVG Export Plug-In . SVG Version: 6.00 Build 0)  -->
<!DOCTYPE svg PUBLIC "-//W3C//DTD SVG 1.1//EN" "http://www.w3.org/Graphics/SVG/1.1/DTD/svg11.dtd">
<svg version="1.1" xmlns="http://www.w3.org/2000/svg" xmlns:xlink="http://www.w3.org/1999/xlink" x="0px" y="0px" width="36px"
	 height="36px" viewBox="0 0 36 36" enable-background="new 0 0 36 36" xml:space="preserve">
<g id="Layer_1" display="none">
	<path display="inline" fill="#FFFFFF" stroke="#ACACAC" stroke-width="2" stroke-miterlimit="10" d="M34.311,19.517
		c0-3.933-4.834-7.12-10.8-7.12c-5.963,0-10.799,3.187-10.799,7.12c0,3.933,4.835,7.118,10.799,7.118
		c1.184,0,2.319-0.13,3.386-0.361c0.49,1.51,2.355,2.354,3.948,2.727c-1.336-2.208-1.112-3.319-0.826-3.812
		C32.622,23.888,34.311,21.835,34.311,19.517z"/>
	<path display="inline" fill="#FFFFFF" stroke="#ACACAC" stroke-width="2" stroke-miterlimit="10" d="M16,3.363
		c-7.731,0-14,4.396-14,9.819c0,3.14,2.109,5.928,5.379,7.725c0.413,1.037,0.647,3.371-1.913,7.869
		c3.187-0.793,6.972-2.623,7.657-5.985c0.929,0.136,1.89,0.21,2.876,0.21c7.732,0,14-4.396,14-9.819C30,7.759,23.732,3.363,16,3.363
		z"/>
	<g display="inline">
		<path fill="#ACACAC" d="M14.641,15.469c-0.119-0.269-0.358-0.821-0.373-1.374c0-1.537,1-1.851,1.925-2.284
			c0.627-0.298,1.464-0.671,1.464-1.477c0-1.105-0.881-1.344-1.688-1.344c-1.209,0-1.821,0.403-1.97,1.672l-2.09-0.209
			c0.195-2.09,1.329-3.404,4.061-3.404c2.315,0,3.822,1.105,3.822,3.27c0,2.179-1.626,2.642-2.671,3.09
			c-0.733,0.313-1.032,0.656-1.001,1.179c0,0.269,0.06,0.567,0.135,0.881H14.641z M16.702,18.888h-2.239v-2.239h2.239V18.888z"/>
	</g>
</g>
<g id="Layer_2" display="none">
	<g display="inline">
		<polygon fill="#ACACAC" points="10.289,15.146 18,15.062 25.711,15.146 18,7.436 		"/>
		<rect x="16.07" y="13.804" fill="#ACACAC" width="3.859" height="9.562"/>
		<rect x="10.367" y="24.706" fill="#ACACAC" width="15.266" height="3.858"/>
	</g>
</g>
<g id="Layer_3">
	<path fill="#ACACAC" d="M16.299,26.936c0-2.042,0-4.086,0-6.129c0-1.537-0.008-3.073,0.012-4.609
		c0.002-0.188,0.105-0.436,0.247-0.546c0.549-0.425,0.77-0.929,0.582-1.49c-0.169-0.504-0.667-0.842-1.212-0.823
		c-0.554,0.019-1.033,0.42-1.16,0.968s0.153,1.063,0.761,1.399c0.045,0.025,0.089,0.054,0.148,0.091c0,3.71,0,7.427,0,11.296
		c-1.741-4.392-3.199-8.782-6.551-12.144c3.604-4.868,3.876-5.303,4.193-6.702c1.77,0,3.545,0,5.313,0
		c0.809,2.632,2.657,4.596,4.245,6.73c-2.399,2.255-3.72,5.186-4.991,8.14c-0.543,1.259-1.007,2.55-1.51,3.828
		C16.351,26.941,16.325,26.938,16.299,26.936z"/>
	<path fill="#ACACAC" d="M21.453,5.159c0.101,0.376,0.354,0.824,0.3,1.231c-0.081,0.606-0.663,0.738-1.202,0.739
		c-3.039,0.009-6.077,0.009-9.116-0.001c-0.542-0.001-1.118-0.15-1.189-0.755c-0.048-0.41,0.215-0.855,0.33-1.254
		c-0.098-0.418-0.376-0.934-0.286-1.373c0.143-0.689,0.831-0.648,1.409-0.648c2.903,0.002,5.807,0.004,8.71-0.001
		c0.564,0,1.194,0.021,1.319,0.667C21.809,4.185,21.56,4.67,21.453,5.159z"/>
</g>
<g id="Layer_4" display="none">
	<rect x="4.75" y="5.125" display="inline" fill="#ACACAC" width="7.875" height="25.25"/>
	<rect x="13.75" y="5.125" display="inline" fill="#ACACAC" width="7.875" height="25.25"/>
	<rect x="6" y="27.5" display="inline" fill="#FFFFFF" width="5.125" height="1.5"/>
	<rect x="6" y="11.125" display="inline" fill="#FFFFFF" width="5.125" height="1.5"/>
	<rect x="6" y="7.75" display="inline" fill="#FFFFFF" width="5.125" height="1.5"/>
	<rect x="15.125" y="27.5" display="inline" fill="#FFFFFF" width="5.125" height="1.5"/>
	<rect x="15.125" y="11.125" display="inline" fill="#FFFFFF" width="5.125" height="1.5"/>
	<rect x="15.125" y="7.75" display="inline" fill="#FFFFFF" width="5.125" height="1.5"/>
	<g display="inline">
		
			<rect x="24.913" y="4.75" transform="matrix(0.9641 -0.2656 0.2656 0.9641 -3.579 8.288)" fill="#ACACAC" width="7.875" height="25.25"/>
		
			<rect x="28.957" y="26.781" transform="matrix(0.9641 -0.2656 0.2656 0.9641 -6.181 9.3622)" fill="#FFFFFF" width="5.125" height="1.5"/>
		
			<rect x="24.607" y="10.994" transform="matrix(0.9641 -0.2656 0.2656 0.9641 -2.1436 7.6395)" fill="#FFFFFF" width="5.125" height="1.5"/>
		
			<rect x="23.711" y="7.741" transform="matrix(0.9641 -0.2656 0.2656 0.9641 -1.3115 7.2844)" fill="#FFFFFF" width="5.125" height="1.5"/>
	</g>
</g>
</svg>
