<?xml version="1.0" encoding="utf-8"?>
<!-- Generator: Adobe Illustrator 16.0.0, SVG Export Plug-In . SVG Version: 6.00 Build 0)  -->
<!DOCTYPE svg PUBLIC "-//W3C//DTD SVG 1.1//EN" "http://www.w3.org/Graphics/SVG/1.1/DTD/svg11.dtd">
<svg version="1.1" xmlns="http://www.w3.org/2000/svg" xmlns:xlink="http://www.w3.org/1999/xlink" x="0px" y="0px" width="36px"
	 height="36px" viewBox="0 0 36 36" enable-background="new 0 0 36 36" xml:space="preserve">
<g id="Layer_1" display="none">
	<path display="inline" fill="#FFFFFF" stroke="#ACACAC" stroke-width="2" stroke-miterlimit="10" d="M34.311,19.517
		c0-3.933-4.834-7.12-10.8-7.12c-5.963,0-10.799,3.187-10.799,7.12c0,3.933,4.835,7.118,10.799,7.118
		c1.184,0,2.319-0.13,3.386-0.361c0.49,1.51,2.355,2.354,3.948,2.727c-1.336-2.208-1.112-3.319-0.826-3.812
		C32.622,23.888,34.311,21.835,34.311,19.517z"/>
	<path display="inline" fill="#FFFFFF" stroke="#ACACAC" stroke-width="2" stroke-miterlimit="10" d="M16,3.363
		c-7.731,0-14,4.396-14,9.819c0,3.14,2.109,5.928,5.379,7.725c0.413,1.037,0.647,3.371-1.913,7.869
		c3.187-0.793,6.972-2.623,7.657-5.985c0.929,0.136,1.89,0.21,2.876,0.21c7.732,0,14-4.396,14-9.819C30,7.759,23.732,3.363,16,3.363
		z"/>
	<g display="inline">
		<path fill="#ACACAC" d="M14.641,15.469c-0.119-0.269-0.358-0.821-0.373-1.374c0-1.537,1-1.851,1.925-2.284
			c0.627-0.298,1.464-0.671,1.464-1.477c0-1.105-0.881-1.344-1.688-1.344c-1.209,0-1.821,0.403-1.97,1.672l-2.09-0.209
			c0.195-2.09,1.329-3.404,4.061-3.404c2.315,0,3.822,1.105,3.822,3.27c0,2.179-1.626,2.642-2.671,3.09
			c-0.733,0.313-1.032,0.656-1.001,1.179c0,0.269,0.06,0.567,0.135,0.881H14.641z M16.702,18.888h-2.239v-2.239h2.239V18.888z"/>
	</g>
</g>
<g id="Layer_2" display="none">
	<g display="inline">
		<polygon fill="#ACACAC" points="10.289,15.146 18,15.062 25.711,15.146 18,7.436 		"/>
		<rect x="16.07" y="13.804" fill="#ACACAC" width="3.859" height="9.562"/>
		<rect x="10.367" y="24.706" fill="#ACACAC" width="15.266" height="3.858"/>
	</g>
</g>
<g id="Layer_3" display="none">
	<path display="inline" fill="#ACACAC" d="M18.375,32.949c0-2.562,0-5.126,0-7.688c0-1.929-0.011-3.855,0.015-5.783
		c0.003-0.234,0.132-0.547,0.31-0.685c0.688-0.532,0.966-1.165,0.729-1.869c-0.213-0.633-0.838-1.057-1.521-1.032
		c-0.694,0.023-1.296,0.526-1.455,1.214s0.191,1.333,0.954,1.755c0.057,0.032,0.112,0.067,0.187,0.114c0,4.653,0,9.316,0,14.171
		c-2.184-5.51-4.014-11.018-8.219-15.234c4.521-6.106,4.863-6.653,5.261-8.407c2.22,0,4.447,0,6.666,0
		c1.015,3.302,3.333,5.766,5.325,8.442c-3.01,2.829-4.666,6.506-6.262,10.211c-0.681,1.579-1.264,3.199-1.894,4.803
		C18.44,32.956,18.407,32.952,18.375,32.949z"/>
	<path display="inline" fill="#ACACAC" d="M24.841,5.63c0.126,0.472,0.444,1.034,0.376,1.545c-0.102,0.761-0.832,0.926-1.508,0.927
		c-3.812,0.012-7.624,0.012-11.437-0.001c-0.681-0.002-1.402-0.188-1.491-0.947c-0.061-0.514,0.27-1.073,0.414-1.573
		c-0.123-0.524-0.473-1.172-0.358-1.722c0.179-0.864,1.042-0.813,1.768-0.813c3.643,0.003,7.285,0.005,10.927-0.001
		c0.708-0.001,1.498,0.025,1.655,0.837C25.287,4.408,24.975,5.018,24.841,5.63z"/>
</g>
<g id="Layer_4">
	<rect x="4.75" y="5.125" fill="#ACACAC" width="7.875" height="25.25"/>
	<rect x="13.75" y="5.125" fill="#ACACAC" width="7.875" height="25.25"/>
	<rect x="6" y="27.5" fill="#FFFFFF" width="5.125" height="1.5"/>
	<rect x="6" y="11.125" fill="#FFFFFF" width="5.125" height="1.5"/>
	<rect x="6" y="7.75" fill="#FFFFFF" width="5.125" height="1.5"/>
	<rect x="15.125" y="27.5" fill="#FFFFFF" width="5.125" height="1.5"/>
	<rect x="15.125" y="11.125" fill="#FFFFFF" width="5.125" height="1.5"/>
	<rect x="15.125" y="7.75" fill="#FFFFFF" width="5.125" height="1.5"/>
	<g>
		
			<rect x="24.913" y="4.75" transform="matrix(0.9641 -0.2656 0.2656 0.9641 -3.579 8.288)" fill="#ACACAC" width="7.875" height="25.25"/>
		
			<rect x="28.957" y="26.781" transform="matrix(0.9641 -0.2656 0.2656 0.9641 -6.181 9.3622)" fill="#FFFFFF" width="5.125" height="1.5"/>
		
			<rect x="24.607" y="10.994" transform="matrix(0.9641 -0.2656 0.2656 0.9641 -2.1436 7.6395)" fill="#FFFFFF" width="5.125" height="1.5"/>
		
			<rect x="23.711" y="7.741" transform="matrix(0.9641 -0.2656 0.2656 0.9641 -1.3115 7.2844)" fill="#FFFFFF" width="5.125" height="1.5"/>
	</g>
</g>
</svg>
