<?xml version="1.0" encoding="utf-8"?>
<!-- Generator: Adobe Illustrator 16.0.0, SVG Export Plug-In . SVG Version: 6.00 Build 0)  -->
<!DOCTYPE svg PUBLIC "-//W3C//DTD SVG 1.1//EN" "http://www.w3.org/Graphics/SVG/1.1/DTD/svg11.dtd">
<svg version="1.1" id="Layer_1" xmlns="http://www.w3.org/2000/svg" xmlns:xlink="http://www.w3.org/1999/xlink" x="0px" y="0px"
	 width="36px" height="36px" viewBox="0 0 36 36" enable-background="new 0 0 36 36" xml:space="preserve">
<g id="Layer_1_1_" display="none">
	<path display="inline" fill="#FFFFFF" stroke="#ACACAC" stroke-width="2" stroke-miterlimit="10" d="M34.311,19.518
		c0-3.934-4.834-7.121-10.799-7.121c-5.964,0-10.8,3.187-10.8,7.121c0,3.933,4.835,7.117,10.8,7.117c1.184,0,2.318-0.13,3.385-0.361
		c0.49,1.511,2.355,2.354,3.949,2.728c-1.337-2.208-1.113-3.319-0.826-3.812C32.622,23.889,34.311,21.835,34.311,19.518z"/>
	<path display="inline" fill="#FFFFFF" stroke="#ACACAC" stroke-width="2" stroke-miterlimit="10" d="M16,3.363
		c-7.731,0-14,4.396-14,9.819c0,3.14,2.109,5.927,5.379,7.725c0.413,1.036,0.647,3.37-1.913,7.868
		c3.187-0.793,6.972-2.623,7.657-5.984c0.929,0.136,1.89,0.21,2.876,0.21c7.731,0,14-4.396,14-9.819C30,7.759,23.732,3.363,16,3.363
		z"/>
	<g display="inline">
		<path fill="#ACACAC" d="M14.641,15.469c-0.119-0.269-0.358-0.821-0.373-1.374c0-1.537,1-1.851,1.925-2.284
			c0.627-0.298,1.464-0.671,1.464-1.477c0-1.105-0.881-1.344-1.688-1.344c-1.209,0-1.821,0.403-1.97,1.672l-2.09-0.209
			c0.195-2.09,1.329-3.404,4.061-3.404c2.315,0,3.822,1.105,3.822,3.27c0,2.179-1.626,2.642-2.671,3.09
			c-0.733,0.313-1.032,0.656-1.001,1.179c0,0.269,0.06,0.567,0.135,0.881H14.641z M16.702,18.889h-2.239v-2.24h2.239V18.889z"/>
	</g>
</g>
<g display="none">
	<polygon display="inline" fill="#ACACAC" points="10.289,20.193 18,20.109 25.711,20.193 18,12.483 	"/>
	<rect x="16.07" y="18.852" display="inline" fill="#ACACAC" width="3.86" height="9.562"/>
	<rect x="10.367" y="7.587" display="inline" fill="#ACACAC" width="15.266" height="3.858"/>
</g>
<g>
	<path fill="#ACACAC" d="M24.854,14.247c0,0.287,0,0.573,0,0.86c-0.047,0.357-0.077,0.718-0.142,1.071
		c-0.407,2.233-1.302,4.255-2.684,6.056c-0.597,0.779-1.281,1.479-2.182,1.911c-0.322,0.154-0.679,0.234-1.019,0.349
		c-0.519,0-1.039,0-1.558,0c-0.335-0.037-0.672-0.106-1.008-0.103c-0.471,0.006-0.94,0.065-1.41,0.103c-0.451,0-0.902,0-1.353,0
		c-0.024-0.012-0.047-0.03-0.073-0.034c-0.777-0.134-1.43-0.518-2.025-1.013c-0.902-0.751-1.618-1.659-2.236-2.649
		c-0.895-1.437-1.557-2.969-1.871-4.64c-0.062-0.335-0.099-0.673-0.149-1.009c0-0.383,0-0.766,0-1.148
		c0.014-0.093,0.028-0.187,0.042-0.281c0.096-0.646,0.157-1.301,0.297-1.938c0.203-0.918,0.599-1.757,1.28-2.43
		c0.845-0.834,1.9-1.138,3.056-1.169c0.921-0.024,1.826,0.104,2.716,0.318c0.864,0.208,1.717,0.299,2.608,0.149
		c1.126-0.19,2.267-0.245,3.404-0.057c1.033,0.169,1.97,0.542,2.724,1.297c0.879,0.88,1.269,1.986,1.451,3.182
		C24.783,13.461,24.812,13.854,24.854,14.247z M9.422,12.707c0.043,0.282,0.057,0.571,0.135,0.843
		c0.154,0.527,0.188,0.67,0.824,0.404c0.913-0.38,1.666-0.983,2.231-1.802c0.227-0.33,0.387-0.689,0.364-1.107
		c-0.033-0.624-0.583-1.154-1.201-1.154c-0.615,0.001-1.108,0.265-1.504,0.716C9.747,11.203,9.504,11.915,9.422,12.707z"/>
	<path fill-rule="evenodd" clip-rule="evenodd" fill="#ACACAC" d="M21.82,3.507c0.153,0.022,0.307,0.045,0.462,0.067
		c0.237,1.108-0.117,2.849-1.848,3.495c-0.993,0.37-1.98,0.296-3.021-0.021c1.501-0.56,2.763-1.38,3.724-2.642
		c-1.453,0.703-2.885,1.396-4.377,2.12c0.054-0.213,0.082-0.369,0.134-0.515c0.402-1.146,1.235-1.844,2.365-2.198
		c0.438-0.137,0.906-0.18,1.36-0.266c0.059-0.011,0.119-0.026,0.178-0.04C21.138,3.507,21.479,3.507,21.82,3.507z"/>
	<path fill-rule="evenodd" clip-rule="evenodd" fill="#FFFFFF" d="M9.422,12.707c0.082-0.792,0.325-1.504,0.85-2.102
		c0.396-0.451,0.889-0.715,1.504-0.716c0.619,0,1.168,0.531,1.201,1.154c0.023,0.418-0.137,0.778-0.364,1.107
		c-0.565,0.819-1.319,1.422-2.231,1.802c-0.637,0.266-0.67,0.123-0.824-0.404C9.479,13.278,9.465,12.989,9.422,12.707z"/>
	<path fill-rule="evenodd" clip-rule="evenodd" fill="#ACACAC" d="M14.619,5.242c1.146,0.375,1.738,1.459,1.735,2.675
		c-0.341-0.109-0.692-0.221-1.076-0.344c-0.026-0.186-0.049-0.435-0.098-0.68c-0.085-0.432-0.274-0.809-0.612-1.107
		c-0.049-0.043-0.07-0.149-0.06-0.219C14.526,5.456,14.58,5.35,14.619,5.242z"/>
</g>
</svg>
