<?xml version="1.0" encoding="utf-8"?>
<!-- Generator: Adobe Illustrator 16.0.0, SVG Export Plug-In . SVG Version: 6.00 Build 0)  -->
<!DOCTYPE svg PUBLIC "-//W3C//DTD SVG 1.1//EN" "http://www.w3.org/Graphics/SVG/1.1/DTD/svg11.dtd">
<svg version="1.1" id="Layer_1" xmlns="http://www.w3.org/2000/svg" xmlns:xlink="http://www.w3.org/1999/xlink" x="0px" y="0px"
	 width="268.971px" height="118.146px" viewBox="0 0 268.971 118.146" enable-background="new 0 0 268.971 118.146"
	 xml:space="preserve">
<g>
	<path fill-rule="evenodd" clip-rule="evenodd" fill="#45844C" d="M6.35,10.497c1.651,0.172,3.078,0.987,4.059,2.172
		c-1.208,0.946-2.769,1.444-4.416,1.273c-1.647-0.17-3.073-0.979-4.061-2.151C3.136,10.833,4.7,10.327,6.35,10.497z"/>
	<path fill-rule="evenodd" clip-rule="evenodd" fill="#45844C" d="M10.562,4.553c1.293,2.301,1.542,4.904,0.904,7.267
		c-2.338-0.702-4.419-2.272-5.709-4.568C4.467,4.954,4.208,2.36,4.826,0C7.175,0.684,9.269,2.251,10.562,4.553z"/>
</g>
<g>
	<path fill="#A3A674" d="M10.657,28.815c-0.287-0.198-0.376-0.437-0.268-0.713c0.109-0.277,0.361-0.595,0.758-0.951
		c0.396-0.356,0.832-0.762,1.307-1.218c0-1.069-0.1-2.119-0.297-3.149c-0.198-1.029-0.421-2.054-0.668-3.074
		c-0.248-1.02-0.47-2.039-0.668-3.06c-0.198-1.02-0.297-2.055-0.297-3.104c0-0.634,0.129-1.059,0.386-1.277
		c0.257-0.217,0.703-0.327,1.337-0.327c0.356,0,0.609,0.065,0.757,0.194s0.248,0.292,0.297,0.489
		c0.049,0.198,0.079,0.412,0.089,0.639c0.01,0.228,0.044,0.441,0.104,0.639c0.06,0.198,0.178,0.362,0.356,0.49
		c0.178,0.129,0.456,0.193,0.832,0.193c1.663-0.02,3.322-0.158,4.976-0.416c1.653-0.258,3.307-0.521,4.961-0.787
		c1.653-0.268,3.307-0.49,4.961-0.669c1.653-0.178,3.332-0.197,5.035-0.06c0.02,0.476,0.069,0.887,0.148,1.233
		s0.114,0.634,0.104,0.861c-0.01,0.229-0.094,0.382-0.252,0.46c-0.159,0.08-0.476,0.08-0.951,0
		c-0.495,0.021-1.154,0.045-1.976,0.074c-0.822,0.03-1.733,0.07-2.733,0.12c-1,0.049-2.06,0.108-3.178,0.178
		c-1.119,0.069-2.224,0.153-3.312,0.252c-1.089,0.1-2.129,0.219-3.119,0.357s-1.862,0.302-2.614,0.489
		c-0.752,0.188-1.356,0.397-1.812,0.624c-0.456,0.229-0.683,0.49-0.683,0.788c0,0.138,0.01,0.405,0.03,0.801
		c0.02,0.397,0.049,0.843,0.089,1.337c0.04,0.495,0.094,1.016,0.164,1.561c0.069,0.544,0.148,1.039,0.238,1.484
		c0.089,0.446,0.193,0.817,0.312,1.114c0.119,0.298,0.248,0.445,0.386,0.445c1.406,0,2.832-0.118,4.278-0.355
		c1.445-0.238,2.896-0.505,4.352-0.803c1.456-0.297,2.906-0.564,4.352-0.802c1.445-0.237,2.881-0.357,4.307-0.357
		c0.04,0,0.054,0.09,0.044,0.268c-0.01,0.179-0.025,0.382-0.044,0.609c-0.02,0.228-0.035,0.436-0.044,0.624
		c-0.01,0.188,0.004,0.282,0.044,0.282c-0.614,0.337-1.436,0.623-2.465,0.861c-1.03,0.238-2.149,0.441-3.357,0.609
		c-1.208,0.168-2.441,0.322-3.699,0.46c-1.258,0.139-2.421,0.292-3.49,0.461c-1.069,0.168-1.99,0.361-2.763,0.579
		s-1.268,0.485-1.485,0.802l-0.416,9.269c-0.159,0.158-0.341,0.263-0.549,0.312c-0.208,0.05-0.426,0.069-0.653,0.06
		c-0.228-0.01-0.466-0.024-0.713-0.045c-0.248-0.02-0.49-0.029-0.728-0.029v-8.347C11.533,29.171,10.943,29.013,10.657,28.815z"/>
	<path fill="#A3A674" d="M70.521,36.746c0,0.199-0.074,0.348-0.223,0.445c-0.149,0.1-0.317,0.169-0.506,0.208
		c-0.188,0.041-0.371,0.06-0.549,0.06c-0.179,0-0.308,0-0.387,0c-0.515,0-0.881-0.306-1.099-0.921
		c-0.219-0.613-0.353-1.465-0.401-2.555c-0.05-1.088-0.045-2.386,0.015-3.891c0.06-1.506,0.114-3.149,0.164-4.932
		c0.049-1.782,0.059-3.674,0.029-5.674s-0.163-4.05-0.401-6.149c0.238-0.416,0.49-0.643,0.758-0.684
		c0.268-0.039,0.52,0.021,0.758,0.179c0.237,0.158,0.455,0.366,0.653,0.624c0.197,0.257,0.356,0.476,0.476,0.653
		c0.613-0.594,1.465-1.044,2.555-1.352c1.089-0.307,2.272-0.5,3.55-0.579s2.579-0.044,3.906,0.104
		c1.326,0.149,2.534,0.382,3.624,0.698c1.089,0.317,1.995,0.714,2.718,1.188c0.723,0.476,1.119,1.01,1.188,1.604
		c0.069,0.594-0.252,1.237-0.966,1.931c-0.713,0.693-1.971,1.416-3.772,2.169c-0.277,0.118-0.703,0.281-1.277,0.489
		s-1.228,0.437-1.96,0.684c-0.733,0.248-1.491,0.511-2.272,0.787c-0.783,0.278-1.53,0.55-2.243,0.816
		c-0.713,0.269-1.337,0.516-1.871,0.743c-0.535,0.228-0.911,0.421-1.129,0.58c0,0.099,0.049,0.213,0.148,0.341
		c0.099,0.129,0.336,0.327,0.713,0.594c0.376,0.268,0.94,0.629,1.693,1.085c0.752,0.456,1.782,1.069,3.089,1.841
		c1.308,0.772,2.941,1.729,4.901,2.867c1.961,1.14,4.347,2.521,7.159,4.145c0.1,0.079,0.223,0.168,0.372,0.267
		c0.148,0.1,0.286,0.219,0.415,0.357s0.243,0.281,0.342,0.43s0.148,0.312,0.148,0.49c0,0.258-0.099,0.451-0.297,0.58
		s-0.436,0.222-0.713,0.281c-0.277,0.061-0.564,0.09-0.861,0.09s-0.545,0-0.743,0c-0.356,0.039-0.926-0.149-1.708-0.564
		c-0.782-0.416-1.684-0.96-2.703-1.634c-1.02-0.673-2.124-1.431-3.312-2.272c-1.188-0.842-2.367-1.674-3.535-2.495
		c-1.169-0.821-2.288-1.59-3.357-2.303s-1.99-1.277-2.763-1.693L70.521,36.746z M70.312,16.428
		c-0.179,0.277-0.293,0.649-0.342,1.113c-0.05,0.467-0.04,0.946,0.029,1.441s0.179,0.96,0.327,1.396
		c0.148,0.436,0.321,0.753,0.52,0.95c0.218,0.079,0.639,0.06,1.263-0.06s1.361-0.302,2.213-0.549
		c0.852-0.248,1.758-0.55,2.719-0.907c0.96-0.355,1.881-0.727,2.763-1.113c0.881-0.387,1.668-0.782,2.361-1.188
		c0.693-0.405,1.198-0.787,1.515-1.144c0.317-0.356,0.387-0.673,0.208-0.951c-0.178-0.276-0.703-0.494-1.574-0.652
		c-0.356-0.1-0.861-0.174-1.515-0.224c-0.654-0.049-1.382-0.074-2.184-0.074s-1.639,0.035-2.51,0.104
		c-0.872,0.07-1.693,0.179-2.466,0.327s-1.456,0.353-2.05,0.609C70.995,15.765,70.569,16.071,70.312,16.428z"/>
	<path fill="#A3A674" d="M125.222,12.298c0.515,0.14,1.223,0.224,2.124,0.253c0.901,0.029,1.891,0.035,2.971,0.016
		c1.079-0.021,2.208-0.05,3.386-0.09c1.178-0.039,2.297-0.06,3.357-0.06c1.059,0,2.024,0.035,2.896,0.104
		c0.871,0.069,1.554,0.192,2.05,0.371v1.842c-0.674,0.099-1.595,0.158-2.763,0.178c-1.169,0.021-2.417,0.035-3.743,0.045
		c-1.327,0.011-2.654,0.05-3.98,0.119c-1.327,0.069-2.486,0.213-3.476,0.431c-0.178,0.812-0.308,1.49-0.386,2.034
		c-0.08,0.546-0.134,1.021-0.164,1.427c-0.03,0.406-0.04,0.787-0.03,1.144c0.01,0.356,0.03,0.738,0.06,1.144
		c0.03,0.406,0.06,0.877,0.089,1.411c0.03,0.534,0.045,1.188,0.045,1.96c1.267,0,2.5-0.063,3.698-0.192s2.386-0.277,3.565-0.446
		c1.178-0.167,2.361-0.316,3.55-0.445c1.188-0.129,2.406-0.192,3.654-0.192v2.02l-14.2,1.782l0.208,7.545
		c1.861,0,3.545-0.054,5.05-0.163c1.504-0.108,2.936-0.223,4.292-0.342c1.356-0.118,2.698-0.232,4.025-0.342
		c1.327-0.108,2.733-0.162,4.218-0.162c0,0.217-0.059,0.479-0.178,0.787c-0.119,0.307-0.277,0.584-0.475,0.831
		c-0.198,0.248-0.421,0.436-0.668,0.564c-0.248,0.129-0.49,0.104-0.728-0.074c-1.366,0.158-2.876,0.312-4.53,0.461
		c-1.654,0.147-3.327,0.297-5.021,0.445s-3.327,0.287-4.901,0.415c-1.575,0.13-2.956,0.243-4.144,0.342L125.222,12.298z"/>
	<path fill="#A3A674" d="M180.485,34.073c0-0.238,0.084-0.47,0.252-0.698c0.168-0.228,0.361-0.44,0.579-0.639
		s0.431-0.366,0.639-0.505c0.208-0.139,0.352-0.238,0.431-0.298c0.099,0.912,0.445,1.6,1.04,2.065
		c0.594,0.465,1.337,0.763,2.228,0.891c0.891,0.129,1.891,0.114,3-0.044c1.109-0.158,2.218-0.406,3.327-0.743
		c1.109-0.336,2.178-0.737,3.208-1.203c1.029-0.465,1.911-0.945,2.644-1.44c0.732-0.495,1.277-0.976,1.634-1.441
		c0.356-0.464,0.416-0.866,0.178-1.202l-15.477-6.149c-0.198-0.06-0.441-0.163-0.728-0.312c-0.287-0.148-0.56-0.316-0.817-0.504
		c-0.257-0.188-0.475-0.396-0.653-0.625c-0.178-0.228-0.268-0.46-0.268-0.698c0-0.931,0.342-1.781,1.025-2.555
		c0.683-0.772,1.56-1.46,2.629-2.063c1.07-0.604,2.258-1.134,3.565-1.59c1.307-0.455,2.574-0.837,3.802-1.144
		c1.228-0.307,2.352-0.539,3.372-0.698c1.02-0.158,1.777-0.257,2.272-0.297c0.317-0.1,0.658-0.139,1.025-0.118
		c0.366,0.019,0.693,0.093,0.98,0.222c0.287,0.129,0.505,0.308,0.653,0.535c0.149,0.228,0.164,0.501,0.045,0.817
		c-0.119,0.297-0.446,0.563-0.98,0.802c-0.535,0.237-1.193,0.455-1.976,0.653s-1.654,0.391-2.614,0.579
		c-0.961,0.188-1.931,0.382-2.912,0.58c-0.98,0.198-1.921,0.411-2.822,0.638c-0.901,0.229-1.693,0.491-2.376,0.787
		c-0.684,0.297-1.203,0.639-1.56,1.025s-0.486,0.827-0.386,1.321c0.475,0.159,1.198,0.401,2.168,0.729
		c0.97,0.327,2.054,0.708,3.253,1.144c1.198,0.436,2.44,0.901,3.728,1.396c1.287,0.495,2.48,0.99,3.58,1.484
		c1.099,0.496,2.044,0.966,2.837,1.412c0.792,0.445,1.297,0.826,1.515,1.143c0.455,0.713,0.639,1.402,0.549,2.064
		c-0.089,0.664-0.376,1.303-0.861,1.917c-0.485,0.614-1.124,1.193-1.916,1.737c-0.792,0.546-1.664,1.051-2.614,1.515
		c-0.951,0.467-1.941,0.882-2.971,1.248c-1.03,0.367-2.015,0.679-2.956,0.936c-0.941,0.258-1.802,0.451-2.584,0.579
		c-0.783,0.129-1.411,0.184-1.886,0.164c-0.278,0.04-0.639,0.04-1.084,0c-0.445-0.04-0.921-0.119-1.426-0.238
		c-0.505-0.118-1.015-0.276-1.53-0.475c-0.515-0.197-0.98-0.431-1.396-0.698c-0.416-0.268-0.752-0.569-1.01-0.906
		C180.583,34.835,180.465,34.47,180.485,34.073z"/>
	<path fill="#A3A674" d="M239.051,27.597c-0.357-0.06-0.664-0.147-0.922-0.268c-0.258-0.118-0.386-0.326-0.386-0.623
		c0-0.257,0.094-0.515,0.282-0.772c0.188-0.257,0.396-0.521,0.623-0.787c0.229-0.268,0.441-0.554,0.639-0.862
		c0.198-0.306,0.317-0.639,0.357-0.994c0.02-0.257,0.045-0.658,0.074-1.203s0.059-1.164,0.089-1.857
		c0.03-0.692,0.063-1.421,0.104-2.184c0.039-0.762,0.068-1.489,0.088-2.183c0.02-0.692,0.04-1.312,0.061-1.856
		c0.02-0.545,0.029-0.945,0.029-1.203c0.139-0.158,0.332-0.312,0.579-0.461s0.5-0.252,0.758-0.312
		c0.257-0.06,0.499-0.045,0.728,0.044c0.228,0.09,0.401,0.303,0.52,0.639l-0.178,11.17c0.078-0.02,0.356-0.03,0.832-0.03
		c0.475,0,1.059-0.004,1.752-0.015c0.693-0.01,1.461-0.034,2.303-0.074c0.842-0.039,1.658-0.104,2.451-0.193
		c0.791-0.088,1.515-0.202,2.168-0.341s1.158-0.327,1.516-0.564l0.118-10.041c0.06-0.158,0.203-0.282,0.431-0.371
		s0.49-0.153,0.787-0.192c0.297-0.04,0.59-0.061,0.877-0.061s0.51,0.011,0.668,0.03c0,0.456,0.01,1.124,0.029,2.005
		s0.05,1.867,0.09,2.956c0.039,1.089,0.074,2.232,0.104,3.431s0.064,2.342,0.104,3.431c0.04,1.09,0.074,2.075,0.104,2.956
		c0.03,0.882,0.054,1.55,0.074,2.006c0.04,0.653,0.089,1.326,0.148,2.02s0.153,1.382,0.282,2.064
		c0.129,0.684,0.297,1.352,0.506,2.005c0.207,0.653,0.47,1.268,0.787,1.842c-0.575,0.575-1.14,0.926-1.693,1.056
		c-0.555,0.128-1.219-0.006-1.99-0.402c-0.357-0.851-0.645-1.771-0.861-2.763c-0.219-0.989-0.387-1.994-0.506-3.015
		c-0.119-1.02-0.203-2.029-0.252-3.029c-0.05-1-0.085-1.946-0.104-2.838c-1.03-0.02-1.96-0.034-2.792-0.044
		s-1.645,0.015-2.436,0.074c-0.793,0.06-1.609,0.184-2.451,0.371c-0.842,0.188-1.777,0.46-2.807,0.817
		c-0.061,0.713-0.104,1.51-0.135,2.391c-0.029,0.882-0.029,1.782,0,2.703c0.03,0.921,0.09,1.837,0.179,2.748
		s0.223,1.772,0.401,2.584l-2.793,0.298L239.051,27.597z"/>
</g>
<g>
	<path fill="#45844C" d="M63.276,50.048c-1.468,5.098-3.498,10.886-6.084,17.364c-4.686,11.544-7.169,17.655-7.447,18.33
		c-0.21,0.522-0.734,0.799-1.574,0.829c-2.868,0.153-6.259,0.153-10.175,0c-0.909-0.03-1.434-0.262-1.573-0.691
		c-1.12-4.974-2.483-10.516-4.091-16.626c-0.21-0.614-0.456-0.921-0.734-0.921c-0.28,0-0.561,0.292-0.839,0.875
		c-0.49,1.197-1.225,4.053-2.203,8.566c-1.049,4.821-1.662,7.469-1.835,7.945c-0.175,0.476-0.752,0.743-1.731,0.806
		c-3.498,0.184-7.064,0.199-10.699,0.046c-0.98-0.03-1.539-0.292-1.678-0.783c-1.958-5.035-3.917-10.055-5.874-15.061
		C3.45,62.1,1.213,55.191,0.025,50.002c-0.141-0.614,0.314-0.921,1.364-0.921h11.224c1.188,0.062,1.888,0.399,2.098,1.014
		c0.21,0.614,1.713,6.049,4.511,16.304c0.069,0.339,0.278,0.506,0.629,0.506c0.278,0,0.524-0.184,0.734-0.554
		c0.419-2.985,1.678-8.45,3.776-16.393c0.21-0.615,0.839-0.907,1.888-0.877c2.308,0,4.615,0,6.923,0
		c3.425,0.062,5.208,0.4,5.35,1.015c0.978,4.095,2.376,9.927,4.196,17.499c0.069,0.462,0.278,0.692,0.629,0.692
		c0.559,0,0.944-0.292,1.154-0.875c0.698-1.966,1.625-5.274,2.779-9.926c1.154-4.652,1.8-7.146,1.941-7.484
		c0.209-0.583,0.979-0.859,2.308-0.829c3.076-0.061,6.677-0.092,10.804-0.092C63.171,49.112,63.486,49.435,63.276,50.048z"/>
	<path fill="#45844C" d="M103.66,85.882c0.349,0.674,0,1.026-1.049,1.059c-1.33,0.061-5.42,0.045-12.273-0.047
		c-0.771,0-1.224-0.415-1.364-1.244c-0.351-2.087-0.524-4.404-0.524-6.954c0-4.636-1.854-6.954-5.559-6.954
		c-0.49-0.062-0.91-0.062-1.259,0c-0.49,0.092-0.734,0.43-0.734,1.013c0,4.821-0.036,9.059-0.105,12.712
		c0,0.799-0.385,1.213-1.154,1.243c-3.776,0.185-7.379,0.215-10.804,0.093c-0.839-0.031-1.259-0.477-1.259-1.334V50.047
		c0-0.552,0.633-0.827,1.9-0.827c3.87,0,9.147-0.016,15.833-0.047c4.363,0,8.057,0.398,11.083,1.196
		c3.308,0.89,4.961,2.07,4.961,3.542l-0.105,9.062c0,1.502-1.015,2.791-3.042,3.863c-1.4,0.768-2.973,1.288-4.72,1.564
		c-0.561,0.092-0.839,0.184-0.839,0.276c0,0.062,0.279,0.138,0.839,0.23c1.328,0.184,2.727,0.566,4.196,1.149
		c3.286,1.258,4.93,4.309,4.93,9.154C102.611,82.309,102.96,84.533,103.66,85.882z M88.555,57.786c0-2.027-1.539-2.994-4.615-2.902
		c-0.7,0.062-1.225,0.092-1.574,0.092c-0.629,0-0.944,0.26-0.944,0.78v8.069c0,0.855,0.488,1.3,1.469,1.329
		c0.349,0.031,0.769,0.031,1.258,0c1.538,0,2.586-0.337,3.147-1.013C88.135,63.159,88.555,61.041,88.555,57.786z"/>
	<path fill="#45844C" d="M122.645,85.558c0,0.737-0.561,1.167-1.678,1.29c-1.678,0.215-5.35,0.215-11.014,0
		c-1.399-0.062-2.098-0.553-2.098-1.474c0.139-10.378,0.173-21.924,0.104-34.635c0-0.307,0.069-0.583,0.21-0.829
		c0.21-0.369,0.593-0.553,1.154-0.553c3.006,0,6.818,0.03,11.434,0.092c1.188,0.062,1.818,0.492,1.888,1.29
		C122.645,59.675,122.645,71.28,122.645,85.558z"/>
	<path fill="#45844C" d="M163.344,54.884c0,0.431-0.595,0.646-1.783,0.646c-0.49,0-1.539-0.016-3.147-0.046
		c-1.539,0-2.798,0-3.776,0c-1.468,0-2.203,0.23-2.203,0.691l0.21,29.75c0,0.492-0.385,0.754-1.154,0.784
		c-2.517,0.153-6.503,0.139-11.958-0.046c-0.909-0.03-1.363-0.292-1.363-0.784l-0.105-29.75c0-0.431-0.419-0.646-1.259-0.646h-7.762
		c-1.12-0.031-1.678-0.246-1.678-0.646c0,0.339-0.071-0.291-0.21-1.889c-0.139-1.043-0.069-1.856,0.21-2.44
		c0.278-0.798,0.908-1.197,1.888-1.197c8.67-0.03,19.474-0.03,32.412,0c0.979,0,1.503,0.275,1.574,0.828
		C163.378,52.044,163.413,53.625,163.344,54.884z"/>
	<path fill="#45844C" d="M226.91,50.326c-0.07-1.598-0.246,10.146-0.524,35.23c0,0.799-0.561,1.245-1.678,1.337
		c-3.357,0.246-6.889,0.246-10.595,0c-1.259-0.092-2.063-0.415-2.413-0.967c-2.308-4.606-5-9.826-8.077-15.66
		c-0.28-0.46-0.7-0.69-1.259-0.69c-0.419,0-0.629,0.321-0.629,0.962c0,0.642,0,2.811,0,6.506c-0.07,3.665-0.105,6.521-0.105,8.566
		c0,0.611-0.875,0.993-2.622,1.146c-1.19,0.122-2.764,0.167-4.721,0.137c-2.517-0.031-3.951-0.046-4.3-0.046
		c-1.4,0.03-2.132-0.322-2.203-1.057c-0.278-4.287-0.349-10.75-0.209-19.388c0.141-8.362,0.385-13.677,0.734-15.943
		c0.14-0.735,0.594-1.117,1.364-1.148c1.678-0.03,3.95-0.03,6.818,0c3.496,0.062,5.384,0.092,5.664,0.092
		c0.979,0,1.608,0.322,1.888,0.967c3.496,7.432,5.943,12.222,7.343,14.37c0.559,0.829,1.013,1.243,1.364,1.243
		c0.488,0,0.664-0.477,0.524-1.431c-0.28-2.495-0.42-7.236-0.42-14.226c0-0.708,0.698-1.046,2.098-1.016c2.376,0,5.629,0,9.756,0
		C226.175,49.343,226.91,49.681,226.91,50.326z"/>
	<path fill="#45844C" d="M268.971,85.469c0,0.827-0.35,1.24-1.049,1.24h-2.937c-0.63,0-1.085-0.195-1.364-0.585
		c-0.279-0.391-0.734-0.917-1.363-1.579c-1.189,1.443-5.105,2.164-11.748,2.164c-7.203,0-12.273-0.794-15.21-2.383
		c-2.588-1.405-3.847-3.727-3.776-6.967l0.21-18.699c0.069-3.788,1.503-6.355,4.301-7.699c2.518-1.192,7.028-1.788,13.532-1.788
		c7.762,0,13.041,0.857,15.838,2.572c2.099,1.225,3.182,3.291,3.252,6.199c0.21,2.725,0.279,4.73,0.21,6.015
		c0,0.521-0.456,0.781-1.363,0.781c-2.448,0.031-6.259,0.017-11.434-0.046c-0.839,0-1.295-0.229-1.364-0.688
		c-0.141-1.803-0.279-3.59-0.419-5.363c-0.49-2.444-1.783-3.668-3.882-3.668c-2.588,0-3.881,1.212-3.881,3.633v19.355
		c0,0.49,0.35,1.073,1.049,1.747c0.84,0.827,1.818,1.241,2.938,1.241c2.796,0,4.195-1.658,4.195-4.974v-2.35
		c0-0.398-0.279-0.583-0.839-0.552h-2.517c-0.63,0-0.945-0.139-0.945-0.415v-4.467c0-0.462,0.525-0.691,1.574-0.691
		c3.705,0,8.846,0.016,15.42,0.046c1.049,0,1.572,0.261,1.572,0.78V85.469z"/>
</g>
<path fill-rule="evenodd" clip-rule="evenodd" fill="#45844C" d="M168.885,49.671c-3.737,13.379,0,37.189,0,37.189h11.697
	c0,0,3.738-26.953,0-37.189C176.521,38.55,170.738,43.037,168.885,49.671z"/>
<path fill-rule="evenodd" clip-rule="evenodd" fill="#A3A674" d="M175.184,117.949c0-2.562,0-5.126,0-7.688
	c0-1.929-0.011-3.856,0.014-5.784c0.003-0.234,0.132-0.547,0.31-0.684c0.689-0.532,0.966-1.165,0.73-1.869
	c-0.213-0.633-0.838-1.057-1.522-1.033c-0.694,0.024-1.296,0.527-1.455,1.214c-0.159,0.688,0.191,1.333,0.954,1.755
	c0.057,0.032,0.112,0.068,0.187,0.114c0,4.654,0,9.317,0,14.171c-2.184-5.509-4.014-11.017-8.219-15.234
	c4.52-6.107,4.863-6.653,5.261-8.407c2.219,0,4.447,0,6.666,0c1.014,3.301,3.333,5.765,5.325,8.442
	c-3.01,2.829-4.666,6.506-6.262,10.211c-0.681,1.579-1.264,3.199-1.893,4.803C175.249,117.956,175.216,117.952,175.184,117.949z"/>
<path fill-rule="evenodd" clip-rule="evenodd" fill="#A3A674" d="M181.638,90.63c0.126,0.471,0.444,1.034,0.376,1.545
	c-0.102,0.76-0.832,0.925-1.508,0.926c-3.812,0.012-7.624,0.012-11.436-0.001c-0.681-0.002-1.403-0.188-1.492-0.947
	c-0.06-0.514,0.27-1.073,0.414-1.573c-0.123-0.525-0.472-1.172-0.358-1.722c0.179-0.864,1.042-0.813,1.768-0.813
	c3.642,0.003,7.285,0.005,10.926-0.001c0.708-0.001,1.498,0.025,1.656,0.837C182.084,89.408,181.772,90.017,181.638,90.63z"/>
</svg>
