<?xml version="1.0" encoding="utf-8"?>
<!-- Generator: Adobe Illustrator 16.0.0, SVG Export Plug-In . SVG Version: 6.00 Build 0)  -->
<!DOCTYPE svg PUBLIC "-//W3C//DTD SVG 1.1//EN" "http://www.w3.org/Graphics/SVG/1.1/DTD/svg11.dtd">
<svg version="1.1" id="Layer_1" xmlns="http://www.w3.org/2000/svg" xmlns:xlink="http://www.w3.org/1999/xlink" x="0px" y="0px"
	 width="36px" height="36px" viewBox="0 0 36 36" enable-background="new 0 0 36 36" xml:space="preserve">
<g id="Layer_1_1_" display="none">
	<path display="inline" fill="#FFFFFF" stroke="#ACACAC" stroke-width="2" stroke-miterlimit="10" d="M34.311,19.518
		c0-3.934-4.834-7.121-10.799-7.121c-5.964,0-10.8,3.187-10.8,7.121c0,3.933,4.835,7.117,10.8,7.117c1.184,0,2.318-0.13,3.385-0.361
		c0.49,1.511,2.355,2.354,3.949,2.728c-1.337-2.208-1.113-3.319-0.826-3.812C32.622,23.889,34.311,21.835,34.311,19.518z"/>
	<path display="inline" fill="#FFFFFF" stroke="#ACACAC" stroke-width="2" stroke-miterlimit="10" d="M16,3.363
		c-7.731,0-14,4.396-14,9.819c0,3.14,2.109,5.927,5.379,7.725c0.413,1.036,0.647,3.37-1.913,7.868
		c3.187-0.793,6.972-2.623,7.657-5.984c0.929,0.136,1.89,0.21,2.876,0.21c7.731,0,14-4.396,14-9.819C30,7.759,23.732,3.363,16,3.363
		z"/>
	<g display="inline">
		<path fill="#ACACAC" d="M14.641,15.469c-0.119-0.269-0.358-0.821-0.373-1.374c0-1.537,1-1.851,1.925-2.284
			c0.627-0.298,1.464-0.671,1.464-1.477c0-1.105-0.881-1.344-1.688-1.344c-1.209,0-1.821,0.403-1.97,1.672l-2.09-0.209
			c0.195-2.09,1.329-3.404,4.061-3.404c2.315,0,3.822,1.105,3.822,3.27c0,2.179-1.626,2.642-2.671,3.09
			c-0.733,0.313-1.032,0.656-1.001,1.179c0,0.269,0.06,0.567,0.135,0.881H14.641z M16.702,18.889h-2.239v-2.24h2.239V18.889z"/>
	</g>
</g>
<g>
	<polygon fill="#ACACAC" points="10.289,20.193 18,20.109 25.711,20.193 18,12.483 	"/>
	<rect x="16.07" y="18.852" fill="#ACACAC" width="3.86" height="9.562"/>
	<rect x="10.367" y="7.587" fill="#ACACAC" width="15.266" height="3.858"/>
</g>
</svg>
