<?xml version="1.0" encoding="utf-8"?>
<!-- Generator: Adobe Illustrator 16.0.0, SVG Export Plug-In . SVG Version: 6.00 Build 0)  -->
<!DOCTYPE svg PUBLIC "-//W3C//DTD SVG 1.1//EN" "http://www.w3.org/Graphics/SVG/1.1/DTD/svg11.dtd">
<svg version="1.1" xmlns="http://www.w3.org/2000/svg" xmlns:xlink="http://www.w3.org/1999/xlink" x="0px" y="0px" width="36px"
	 height="36px" viewBox="0 0 36 36" enable-background="new 0 0 36 36" xml:space="preserve">
<g id="Layer_1" display="none">
	<path display="inline" fill="#FFFFFF" stroke="#ACACAC" stroke-width="2" stroke-miterlimit="10" d="M34.311,19.517
		c0-3.933-4.834-7.12-10.8-7.12c-5.963,0-10.799,3.187-10.799,7.12c0,3.933,4.835,7.118,10.799,7.118
		c1.184,0,2.319-0.13,3.386-0.361c0.49,1.51,2.355,2.354,3.948,2.727c-1.336-2.208-1.112-3.319-0.826-3.812
		C32.622,23.888,34.311,21.835,34.311,19.517z"/>
	<path display="inline" fill="#FFFFFF" stroke="#ACACAC" stroke-width="2" stroke-miterlimit="10" d="M16,3.363
		c-7.731,0-14,4.396-14,9.819c0,3.14,2.109,5.928,5.379,7.725c0.413,1.037,0.647,3.371-1.913,7.869
		c3.187-0.793,6.972-2.623,7.657-5.985c0.929,0.136,1.89,0.21,2.876,0.21c7.732,0,14-4.396,14-9.819C30,7.759,23.732,3.363,16,3.363
		z"/>
	<g display="inline">
		<path fill="#ACACAC" d="M14.641,15.469c-0.119-0.269-0.358-0.821-0.373-1.374c0-1.537,1-1.851,1.925-2.284
			c0.627-0.298,1.464-0.671,1.464-1.477c0-1.105-0.881-1.344-1.688-1.344c-1.209,0-1.821,0.403-1.97,1.672l-2.09-0.209
			c0.195-2.09,1.329-3.404,4.061-3.404c2.315,0,3.822,1.105,3.822,3.27c0,2.179-1.626,2.642-2.671,3.09
			c-0.733,0.313-1.032,0.656-1.001,1.179c0,0.269,0.06,0.567,0.135,0.881H14.641z M16.702,18.888h-2.239v-2.239h2.239V18.888z"/>
	</g>
</g>
<g id="Layer_2">
	<g>
		<polygon fill="#ACACAC" points="10.289,15.146 18,15.062 25.711,15.146 18,7.436 		"/>
		<rect x="16.07" y="13.804" fill="#ACACAC" width="3.859" height="9.562"/>
		<rect x="10.367" y="24.706" fill="#ACACAC" width="15.266" height="3.858"/>
	</g>
</g>
</svg>
